<svg xmlns="http://www.w3.org/2000/svg" xmlns:xlink="http://www.w3.org/1999/xlink" viewBox="0 0 435.91 326.95"><defs><style>.cls-1{isolation:isolate;}.cls-2{fill:#fafafa;}.cls-3{fill:url(#linear-gradient);}.cls-4{fill:url(#linear-gradient-2);}.cls-5{fill:url(#linear-gradient-3);}.cls-6{fill:url(#linear-gradient-4);}.cls-7{fill:url(#linear-gradient-5);}.cls-8{fill:url(#linear-gradient-6);}.cls-9{fill:url(#linear-gradient-7);}.cls-10{fill:url(#linear-gradient-8);}.cls-11{fill:url(#linear-gradient-9);}.cls-12{fill:url(#linear-gradient-10);}.cls-13{fill:url(#linear-gradient-11);}.cls-14{fill:url(#linear-gradient-12);}.cls-15{fill:url(#linear-gradient-13);}.cls-16{fill:url(#linear-gradient-14);}.cls-17,.cls-25,.cls-27,.cls-45,.cls-46,.cls-47,.cls-48,.cls-49,.cls-93{fill:none;}.cls-17{stroke:#ad1457;stroke-width:0.33px;}.cls-17,.cls-25,.cls-27,.cls-45,.cls-46,.cls-47,.cls-48,.cls-49{stroke-linecap:round;stroke-linejoin:round;}.cls-18{fill:url(#linear-gradient-15);}.cls-19{fill:url(#linear-gradient-16);}.cls-20{fill:url(#linear-gradient-17);}.cls-21{fill:url(#linear-gradient-18);}.cls-22{fill:url(#linear-gradient-19);}.cls-23{fill:url(#linear-gradient-20);}.cls-24{fill:url(#linear-gradient-21);}.cls-25,.cls-27{stroke:#fff;}.cls-25{stroke-width:0.3px;}.cls-26{fill:url(#linear-gradient-22);}.cls-27{stroke-width:0.26px;}.cls-28{fill:url(#linear-gradient-23);}.cls-29{fill:url(#linear-gradient-24);}.cls-30{fill:url(#linear-gradient-25);}.cls-31{fill:#7adfee;}.cls-32{fill:url(#linear-gradient-26);}.cls-33{fill:url(#linear-gradient-27);}.cls-34{mix-blend-mode:multiply;opacity:0.05;}.cls-35{fill:url(#linear-gradient-28);}.cls-36{fill:url(#linear-gradient-29);}.cls-37{fill:url(#linear-gradient-30);}.cls-38{fill:url(#linear-gradient-31);}.cls-39{fill:url(#linear-gradient-32);}.cls-40{fill:url(#linear-gradient-33);}.cls-41{fill:url(#linear-gradient-34);}.cls-42{fill:url(#linear-gradient-35);}.cls-43{fill:url(#linear-gradient-36);}.cls-44{fill:url(#linear-gradient-37);}.cls-45,.cls-46,.cls-47,.cls-48,.cls-49{stroke:#283593;stroke-width:1.02px;}.cls-46{stroke-dasharray:2.97 4.96;}.cls-47{stroke-dasharray:2.94 4.9;}.cls-48{stroke-dasharray:2.9 4.83;}.cls-49{stroke-dasharray:3.2 5.34;}.cls-50{fill:url(#linear-gradient-38);}.cls-51{fill:url(#linear-gradient-39);}.cls-52{fill:url(#linear-gradient-40);}.cls-53{fill:url(#linear-gradient-41);}.cls-54{fill:url(#linear-gradient-42);}.cls-55{fill:url(#linear-gradient-43);}.cls-56{fill:url(#linear-gradient-44);}.cls-57{fill:url(#linear-gradient-45);}.cls-58{fill:url(#linear-gradient-46);}.cls-59{fill:url(#linear-gradient-47);}.cls-60{fill:url(#linear-gradient-48);}.cls-61{fill:url(#linear-gradient-49);}.cls-62{fill:url(#linear-gradient-50);}.cls-63{fill:url(#linear-gradient-51);}.cls-64{fill:url(#linear-gradient-52);}.cls-65{fill:url(#linear-gradient-53);}.cls-66{fill:url(#linear-gradient-54);}.cls-67{fill:url(#linear-gradient-55);}.cls-68{fill:url(#linear-gradient-56);}.cls-69{fill:url(#linear-gradient-57);}.cls-70{fill:url(#linear-gradient-58);}.cls-71{fill:url(#linear-gradient-59);}.cls-72{fill:url(#linear-gradient-60);}.cls-73{fill:url(#linear-gradient-61);}.cls-74{fill:url(#linear-gradient-62);}.cls-75{fill:url(#linear-gradient-63);}.cls-76{fill:url(#linear-gradient-64);}.cls-77{fill:url(#linear-gradient-65);}.cls-78{fill:url(#linear-gradient-66);}.cls-79{fill:url(#linear-gradient-67);}.cls-80{fill:url(#linear-gradient-68);}.cls-81{fill:url(#linear-gradient-69);}.cls-82{fill:url(#linear-gradient-70);}.cls-83{fill:url(#linear-gradient-71);}.cls-84{fill:url(#linear-gradient-72);}.cls-85{fill:url(#linear-gradient-73);}.cls-86{fill:url(#linear-gradient-74);}.cls-87{fill:url(#linear-gradient-75);}.cls-88{fill:url(#linear-gradient-76);}.cls-89{fill:url(#linear-gradient-77);}.cls-90{fill:url(#linear-gradient-78);}.cls-91{fill:url(#linear-gradient-79);}.cls-92{mix-blend-mode:overlay;}.cls-93{stroke:#fce4ec;stroke-miterlimit:10;stroke-width:0.51px;}.cls-94{fill:url(#linear-gradient-80);}.cls-95{fill:url(#linear-gradient-81);}.cls-142,.cls-96{fill:#fff;}.cls-97{fill:url(#linear-gradient-82);}.cls-98{fill:#ff786f;}.cls-99{fill:url(#linear-gradient-83);}.cls-100{fill:url(#linear-gradient-84);}.cls-101{fill:url(#linear-gradient-85);}.cls-102{fill:#0476f2;}.cls-103{fill:url(#linear-gradient-86);}.cls-104{fill:#ff2a94;}.cls-105{fill:url(#linear-gradient-87);}.cls-106{fill:url(#linear-gradient-88);}.cls-107{fill:url(#linear-gradient-89);}.cls-108{fill:url(#linear-gradient-90);}.cls-109{fill:url(#linear-gradient-91);}.cls-110{fill:#e0e0e0;}.cls-111{fill:#bdbdbd;}.cls-112{fill:url(#linear-gradient-92);}.cls-113{fill:url(#linear-gradient-93);}.cls-114{fill:url(#linear-gradient-94);}.cls-115{fill:url(#linear-gradient-95);}.cls-116{fill:url(#linear-gradient-96);}.cls-117{fill:url(#linear-gradient-97);}.cls-118{fill:url(#linear-gradient-98);}.cls-119{fill:url(#linear-gradient-99);}.cls-120{fill:url(#linear-gradient-100);}.cls-121{fill:url(#linear-gradient-101);}.cls-122{fill:url(#linear-gradient-102);}.cls-123{fill:url(#linear-gradient-103);}.cls-124{fill:url(#linear-gradient-104);}.cls-125{fill:url(#linear-gradient-105);}.cls-126{fill:url(#linear-gradient-106);}.cls-127{fill:url(#linear-gradient-107);}.cls-128{fill:url(#linear-gradient-108);}.cls-129{fill:url(#linear-gradient-109);}.cls-130{fill:url(#linear-gradient-110);}.cls-131{fill:url(#linear-gradient-111);}.cls-132{fill:url(#linear-gradient-112);}.cls-133{fill:url(#linear-gradient-113);}.cls-134{fill:url(#linear-gradient-114);}.cls-135{fill:url(#linear-gradient-115);}.cls-136{fill:url(#linear-gradient-116);}.cls-137{fill:url(#linear-gradient-117);}.cls-138{fill:url(#linear-gradient-118);}.cls-139{fill:url(#linear-gradient-119);}.cls-140{fill:url(#linear-gradient-120);}.cls-141{fill:url(#linear-gradient-121);}.cls-142{opacity:0.45;}</style><linearGradient id="linear-gradient" x1="206.41" y1="128.5" x2="206.41" y2="109.95" gradientUnits="userSpaceOnUse"><stop offset="0.01" stop-color="#0dc7f0"/><stop offset="0.99" stop-color="#023574"/></linearGradient><linearGradient id="linear-gradient-2" x1="186.75" y1="114.03" x2="186.76" y2="114.03" gradientUnits="userSpaceOnUse"><stop offset="0" stop-color="#031a5b"/><stop offset="1" stop-color="#00cff5"/></linearGradient><linearGradient id="linear-gradient-3" x1="226.05" y1="114.03" x2="226.06" y2="114.03" xlink:href="#linear-gradient-2"/><linearGradient id="linear-gradient-4" x1="206.41" y1="146.02" x2="206.41" y2="116.99" xlink:href="#linear-gradient"/><linearGradient id="linear-gradient-5" x1="206.41" y1="102.54" x2="206.41" y2="125.65" xlink:href="#linear-gradient"/><linearGradient id="linear-gradient-6" x1="206.31" y1="47.2" x2="206.56" y2="58.8" gradientUnits="userSpaceOnUse"><stop offset="0" stop-color="#ff7781"/><stop offset="0.54" stop-color="#d70d72"/><stop offset="0.99" stop-color="#98005b"/></linearGradient><linearGradient id="linear-gradient-7" x1="206.41" y1="114.52" x2="216.82" y2="114.52" gradientUnits="userSpaceOnUse"><stop offset="0.01" stop-color="#98005b"/><stop offset="0.46" stop-color="#d70d72"/><stop offset="1" stop-color="#ff7781"/></linearGradient><linearGradient id="linear-gradient-8" x1="195.99" y1="107.95" x2="206.4" y2="107.95" xlink:href="#linear-gradient-6"/><linearGradient id="linear-gradient-9" x1="206.41" y1="99.41" x2="216.82" y2="99.41" xlink:href="#linear-gradient-7"/><linearGradient id="linear-gradient-10" x1="195.99" y1="92.84" x2="206.4" y2="92.84" xlink:href="#linear-gradient-6"/><linearGradient id="linear-gradient-11" x1="206.41" y1="84.31" x2="216.82" y2="84.31" xlink:href="#linear-gradient-7"/><linearGradient id="linear-gradient-12" x1="195.99" y1="77.74" x2="206.4" y2="77.74" xlink:href="#linear-gradient-6"/><linearGradient id="linear-gradient-13" x1="206.41" y1="69.2" x2="216.82" y2="69.2" xlink:href="#linear-gradient-7"/><linearGradient id="linear-gradient-14" x1="196.23" y1="60.28" x2="206.8" y2="66.42" xlink:href="#linear-gradient-6"/><linearGradient id="linear-gradient-15" x1="83.24" y1="197.77" x2="83.24" y2="177.36" xlink:href="#linear-gradient"/><linearGradient id="linear-gradient-16" x1="83.24" y1="182.17" x2="83.24" y2="201.16" gradientUnits="userSpaceOnUse"><stop offset="0" stop-color="#031a5b"/><stop offset="0.15" stop-color="#031e5e"/><stop offset="0.3" stop-color="#032a69"/><stop offset="0.45" stop-color="#023e7a"/><stop offset="0.6" stop-color="#025b92"/><stop offset="0.75" stop-color="#017fb1"/><stop offset="0.9" stop-color="#01acd7"/><stop offset="1" stop-color="#00cff5"/></linearGradient><linearGradient id="linear-gradient-17" x1="63.58" y1="185.53" x2="63.59" y2="185.53" xlink:href="#linear-gradient-2"/><linearGradient id="linear-gradient-18" x1="102.89" y1="185.53" x2="102.9" y2="185.53" xlink:href="#linear-gradient-2"/><linearGradient id="linear-gradient-19" x1="83.24" y1="218.4" x2="83.24" y2="194.1" xlink:href="#linear-gradient"/><linearGradient id="linear-gradient-20" x1="83.24" y1="173.59" x2="83.24" y2="200.65" xlink:href="#linear-gradient"/><linearGradient id="linear-gradient-21" x1="12.64" y1="187.15" x2="25.68" y2="127.81" gradientTransform="matrix(-1, 0, 0, 1, 97.8, 0)" gradientUnits="userSpaceOnUse"><stop offset="0.01" stop-color="#a71d73"/><stop offset="0.48" stop-color="#fe2373"/><stop offset="1" stop-color="#ff8e6e"/></linearGradient><linearGradient id="linear-gradient-22" x1="15.24" y1="195.15" x2="38.64" y2="171.24" xlink:href="#linear-gradient-21"/><linearGradient id="linear-gradient-23" x1="14.75" y1="193.51" x2="-8.52" y2="152.84" xlink:href="#linear-gradient-21"/><linearGradient id="linear-gradient-24" x1="281.8" y1="219.43" x2="281.8" y2="337.22" gradientUnits="userSpaceOnUse"><stop offset="0" stop-color="#ff8e6e"/><stop offset="0.52" stop-color="#fe2373"/><stop offset="0.99" stop-color="#a71d73"/></linearGradient><linearGradient id="linear-gradient-25" x1="187.33" y1="265.93" x2="376.26" y2="265.93" xlink:href="#linear-gradient-24"/><linearGradient id="linear-gradient-26" x1="329.55" y1="218.72" x2="256.21" y2="344.72" gradientUnits="userSpaceOnUse"><stop offset="0.01" stop-color="#dbf3f7"/><stop offset="0.99" stop-color="#50d7ea"/></linearGradient><linearGradient id="linear-gradient-27" x1="227.5" y1="308.56" x2="247.28" y2="287.76" xlink:href="#linear-gradient-26"/><linearGradient id="linear-gradient-28" x1="204.54" y1="272.88" x2="312.3" y2="272.88" xlink:href="#linear-gradient-26"/><linearGradient id="linear-gradient-29" x1="388.28" y1="244.06" x2="390.08" y2="244.06" gradientTransform="translate(-3.64 5.02) rotate(-1)" xlink:href="#linear-gradient-24"/><linearGradient id="linear-gradient-30" x1="324.44" y1="224.49" x2="385.37" y2="224.49" gradientTransform="translate(-3.64 5.02) rotate(-1)" xlink:href="#linear-gradient"/><linearGradient id="linear-gradient-31" x1="324.44" y1="209.36" x2="332.96" y2="209.36" gradientTransform="translate(-3.64 5.02) rotate(-1)" xlink:href="#linear-gradient-24"/><linearGradient id="linear-gradient-32" x1="216.2" y1="309.99" x2="218.05" y2="309.99" xlink:href="#linear-gradient-24"/><linearGradient id="linear-gradient-33" x1="142.54" y1="309.97" x2="211.58" y2="309.97" xlink:href="#linear-gradient"/><linearGradient id="linear-gradient-34" x1="142.54" y1="309.96" x2="151.07" y2="309.96" xlink:href="#linear-gradient-24"/><linearGradient id="linear-gradient-35" x1="203.34" y1="326.21" x2="205.19" y2="326.21" xlink:href="#linear-gradient-24"/><linearGradient id="linear-gradient-36" x1="131.25" y1="318.29" x2="199.23" y2="318.29" xlink:href="#linear-gradient"/><linearGradient id="linear-gradient-37" x1="131.25" y1="312.08" x2="140.01" y2="312.08" xlink:href="#linear-gradient-24"/><linearGradient id="linear-gradient-38" x1="161.5" y1="15.56" x2="180.77" y2="15.56" xlink:href="#linear-gradient"/><linearGradient id="linear-gradient-39" x1="106.12" y1="45.82" x2="160.57" y2="45.82" xlink:href="#linear-gradient"/><linearGradient id="linear-gradient-40" x1="160.38" y1="76.83" x2="132.76" y2="17.49" xlink:href="#linear-gradient"/><linearGradient id="linear-gradient-41" x1="338.92" y1="217.14" x2="300.04" y2="178.94" gradientTransform="translate(744.82 42.63) rotate(120)" xlink:href="#linear-gradient-26"/><linearGradient id="linear-gradient-42" x1="314.11" y1="274.7" x2="314.11" y2="198.67" gradientTransform="translate(744.82 42.63) rotate(120)" xlink:href="#linear-gradient-24"/><linearGradient id="linear-gradient-43" x1="343.12" y1="276.91" x2="335.11" y2="212.11" gradientTransform="translate(744.82 42.63) rotate(120)" xlink:href="#linear-gradient-26"/><linearGradient id="linear-gradient-44" x1="334.55" y1="208.03" x2="334.55" y2="323.05" gradientTransform="translate(744.82 42.63) rotate(120)" xlink:href="#linear-gradient-24"/><linearGradient id="linear-gradient-45" x1="343.52" y1="276.96" x2="343.52" y2="191.7" gradientTransform="translate(744.82 42.63) rotate(120)" xlink:href="#linear-gradient-24"/><linearGradient id="linear-gradient-46" x1="292.41" y1="206.58" x2="292.41" y2="277.78" gradientTransform="matrix(0.5, -0.87, -0.87, -0.5, 427.65, 592.41)" xlink:href="#linear-gradient-24"/><linearGradient id="linear-gradient-47" x1="331.4" y1="212.23" x2="300.19" y2="175.14" gradientTransform="translate(744.82 42.63) rotate(120)" xlink:href="#linear-gradient-24"/><linearGradient id="linear-gradient-48" x1="327.1" y1="222.63" x2="288.22" y2="184.43" gradientTransform="translate(744.82 42.63) rotate(120)" xlink:href="#linear-gradient-26"/><linearGradient id="linear-gradient-49" x1="302.29" y1="280.19" x2="302.29" y2="204.16" gradientTransform="translate(744.82 42.63) rotate(120)" xlink:href="#linear-gradient-24"/><linearGradient id="linear-gradient-50" x1="331.31" y1="282.4" x2="323.29" y2="217.6" gradientTransform="translate(744.82 42.63) rotate(120)" xlink:href="#linear-gradient-26"/><linearGradient id="linear-gradient-51" x1="322.73" y1="213.52" x2="322.73" y2="328.54" gradientTransform="translate(744.82 42.63) rotate(120)" xlink:href="#linear-gradient-24"/><linearGradient id="linear-gradient-52" x1="331.7" y1="282.45" x2="331.7" y2="197.19" gradientTransform="translate(744.82 42.63) rotate(120)" xlink:href="#linear-gradient-24"/><linearGradient id="linear-gradient-53" x1="304.23" y1="212.07" x2="304.23" y2="283.27" gradientTransform="matrix(0.5, -0.87, -0.87, -0.5, 427.65, 592.41)" xlink:href="#linear-gradient-24"/><linearGradient id="linear-gradient-54" x1="319.58" y1="217.72" x2="288.37" y2="180.63" gradientTransform="translate(744.82 42.63) rotate(120)" xlink:href="#linear-gradient-24"/><linearGradient id="linear-gradient-55" x1="320.89" y1="232.69" x2="282.01" y2="194.49" gradientTransform="translate(744.82 42.63) rotate(120)" xlink:href="#linear-gradient-26"/><linearGradient id="linear-gradient-56" x1="296.08" y1="290.25" x2="296.08" y2="214.22" gradientTransform="translate(744.82 42.63) rotate(120)" xlink:href="#linear-gradient-24"/><linearGradient id="linear-gradient-57" x1="325.1" y1="292.46" x2="317.08" y2="227.66" gradientTransform="translate(744.82 42.63) rotate(120)" xlink:href="#linear-gradient-26"/><linearGradient id="linear-gradient-58" x1="316.52" y1="223.58" x2="316.52" y2="338.6" gradientTransform="translate(744.82 42.63) rotate(120)" xlink:href="#linear-gradient-24"/><linearGradient id="linear-gradient-59" x1="325.49" y1="292.51" x2="325.49" y2="207.24" gradientTransform="translate(744.82 42.63) rotate(120)" xlink:href="#linear-gradient-24"/><linearGradient id="linear-gradient-60" x1="310.44" y1="222.13" x2="310.44" y2="293.33" gradientTransform="matrix(0.5, -0.87, -0.87, -0.5, 427.65, 592.41)" xlink:href="#linear-gradient-24"/><linearGradient id="linear-gradient-61" x1="313.37" y1="227.78" x2="282.16" y2="190.69" gradientTransform="translate(744.82 42.63) rotate(120)" xlink:href="#linear-gradient-24"/><linearGradient id="linear-gradient-62" x1="306.19" y1="237.23" x2="267.31" y2="199.03" gradientTransform="translate(744.82 42.63) rotate(120)" xlink:href="#linear-gradient-26"/><linearGradient id="linear-gradient-63" x1="281.38" y1="294.79" x2="281.38" y2="218.76" gradientTransform="translate(744.82 42.63) rotate(120)" xlink:href="#linear-gradient-24"/><linearGradient id="linear-gradient-64" x1="310.39" y1="297" x2="302.38" y2="232.2" gradientTransform="translate(744.82 42.63) rotate(120)" xlink:href="#linear-gradient-26"/><linearGradient id="linear-gradient-65" x1="301.82" y1="228.12" x2="301.82" y2="343.14" gradientTransform="translate(744.82 42.63) rotate(120)" xlink:href="#linear-gradient-24"/><linearGradient id="linear-gradient-66" x1="310.79" y1="297.05" x2="310.79" y2="211.79" gradientTransform="translate(744.82 42.63) rotate(120)" xlink:href="#linear-gradient-24"/><linearGradient id="linear-gradient-67" x1="325.14" y1="226.67" x2="325.14" y2="297.87" gradientTransform="matrix(0.5, -0.87, -0.87, -0.5, 427.65, 592.41)" xlink:href="#linear-gradient-24"/><linearGradient id="linear-gradient-68" x1="298.66" y1="232.32" x2="267.46" y2="195.23" gradientTransform="translate(744.82 42.63) rotate(120)" xlink:href="#linear-gradient-24"/><linearGradient id="linear-gradient-69" x1="558.83" y1="740.15" x2="528.93" y2="710.78" gradientTransform="matrix(0.5, 0.87, 0.87, -0.5, -649.27, 42.63)" xlink:href="#linear-gradient-26"/><linearGradient id="linear-gradient-70" x1="539.75" y1="784.42" x2="539.75" y2="725.95" gradientTransform="matrix(0.5, 0.87, 0.87, -0.5, -649.27, 42.63)" xlink:href="#linear-gradient-24"/><linearGradient id="linear-gradient-71" x1="562.06" y1="786.11" x2="555.9" y2="736.28" gradientTransform="matrix(0.5, 0.87, 0.87, -0.5, -649.27, 42.63)" xlink:href="#linear-gradient-26"/><linearGradient id="linear-gradient-72" x1="555.47" y1="733.15" x2="555.47" y2="821.6" gradientTransform="matrix(0.5, 0.87, 0.87, -0.5, -649.27, 42.63)" xlink:href="#linear-gradient-24"/><linearGradient id="linear-gradient-73" x1="562.37" y1="786.15" x2="562.37" y2="720.59" gradientTransform="matrix(0.5, 0.87, 0.87, -0.5, -649.27, 42.63)" xlink:href="#linear-gradient-24"/><linearGradient id="linear-gradient-74" x1="73.28" y1="732.09" x2="73.28" y2="786.84" gradientTransform="translate(-332.1 592.41) rotate(-120)" xlink:href="#linear-gradient-24"/><linearGradient id="linear-gradient-75" x1="553.05" y1="736.38" x2="529.05" y2="707.86" gradientTransform="matrix(0.5, 0.87, 0.87, -0.5, -649.27, 42.63)" xlink:href="#linear-gradient-24"/><linearGradient id="linear-gradient-76" x1="163.8" y1="171.47" x2="131.06" y2="110.93" xlink:href="#linear-gradient"/><linearGradient id="linear-gradient-77" x1="134.12" y1="76.68" x2="160.72" y2="199.45" xlink:href="#linear-gradient"/><linearGradient id="linear-gradient-78" x1="186.31" y1="147.93" x2="186.82" y2="271.72" xlink:href="#linear-gradient"/><linearGradient id="linear-gradient-79" x1="157.34" y1="268.39" x2="217.02" y2="149.03" xlink:href="#linear-gradient"/><linearGradient id="linear-gradient-80" x1="146.88" y1="77.47" x2="146.88" y2="265.23" xlink:href="#linear-gradient-26"/><linearGradient id="linear-gradient-81" x1="165.55" y1="211.49" x2="128.98" y2="71.33" xlink:href="#linear-gradient"/><linearGradient id="linear-gradient-82" x1="130.78" y1="129.05" x2="125.41" y2="155.91" xlink:href="#linear-gradient-26"/><linearGradient id="linear-gradient-83" x1="309.79" y1="161.83" x2="309.79" y2="138.08" xlink:href="#linear-gradient-24"/><linearGradient id="linear-gradient-84" x1="295.67" y1="141.02" x2="310.66" y2="141.02" xlink:href="#linear-gradient"/><linearGradient id="linear-gradient-85" x1="295.68" y1="122.4" x2="299.66" y2="122.4" xlink:href="#linear-gradient-24"/><linearGradient id="linear-gradient-86" x1="308.1" y1="145.23" x2="323.76" y2="145.23" xlink:href="#linear-gradient"/><linearGradient id="linear-gradient-87" x1="323.18" y1="120.02" x2="323.92" y2="120.02" xlink:href="#linear-gradient-24"/><linearGradient id="linear-gradient-88" x1="304.37" y1="141.54" x2="312.45" y2="141.54" xlink:href="#linear-gradient"/><linearGradient id="linear-gradient-89" x1="304.93" y1="112.43" x2="305.66" y2="112.43" xlink:href="#linear-gradient-24"/><linearGradient id="linear-gradient-90" x1="310.18" y1="136.85" x2="314.93" y2="136.85" xlink:href="#linear-gradient"/><linearGradient id="linear-gradient-91" x1="312.09" y1="114.69" x2="314.93" y2="114.69" xlink:href="#linear-gradient-24"/><linearGradient id="linear-gradient-92" x1="295.49" y1="164.45" x2="324.1" y2="164.45" xlink:href="#linear-gradient-24"/><linearGradient id="linear-gradient-93" x1="58.75" y1="218.24" x2="28.76" y2="192.94" gradientUnits="userSpaceOnUse"><stop offset="0.01" stop-color="#50d7ea"/><stop offset="0.99" stop-color="#dbf3f7"/></linearGradient><linearGradient id="linear-gradient-94" x1="38.43" y1="276.02" x2="38.43" y2="210.98" xlink:href="#linear-gradient-24"/><linearGradient id="linear-gradient-95" x1="63.49" y1="277.72" x2="59.12" y2="218.22" xlink:href="#linear-gradient-93"/><linearGradient id="linear-gradient-96" x1="57.14" y1="214.41" x2="57.14" y2="319.75" xlink:href="#linear-gradient-24"/><linearGradient id="linear-gradient-97" x1="65.36" y1="214.41" x2="65.36" y2="319.75" xlink:href="#linear-gradient-24"/><linearGradient id="linear-gradient-98" x1="570.07" y1="212.88" x2="570.07" y2="278.09" gradientTransform="matrix(-1, 0, 0, 1, 634.33, 0)" xlink:href="#linear-gradient-24"/><linearGradient id="linear-gradient-99" x1="54.26" y1="218.26" x2="25.68" y2="184.29" xlink:href="#linear-gradient-24"/><linearGradient id="linear-gradient-100" x1="46.91" y1="223.9" x2="18.33" y2="197.2" xlink:href="#linear-gradient-93"/><linearGradient id="linear-gradient-101" x1="28.3" y1="282.03" x2="28.3" y2="217.07" xlink:href="#linear-gradient"/><linearGradient id="linear-gradient-102" x1="54.3" y1="283.68" x2="48.05" y2="223.39" xlink:href="#linear-gradient-93"/><linearGradient id="linear-gradient-103" x1="47.02" y1="216.4" x2="47.02" y2="292.1" xlink:href="#linear-gradient"/><linearGradient id="linear-gradient-104" x1="55.24" y1="283.87" x2="55.24" y2="207.76" xlink:href="#linear-gradient"/><linearGradient id="linear-gradient-105" x1="54.13" y1="212.42" x2="54.13" y2="281.84" xlink:href="#linear-gradient"/><linearGradient id="linear-gradient-106" x1="44.13" y1="224.12" x2="15.55" y2="190.15" xlink:href="#linear-gradient"/><linearGradient id="linear-gradient-107" x1="40.9" y1="234.47" x2="5.29" y2="199.49" xlink:href="#linear-gradient-93"/><linearGradient id="linear-gradient-108" x1="18.18" y1="287.19" x2="18.18" y2="217.55" xlink:href="#linear-gradient-24"/><linearGradient id="linear-gradient-109" x1="44.75" y1="289.21" x2="37.41" y2="229.86" xlink:href="#linear-gradient-93"/><linearGradient id="linear-gradient-110" x1="36.9" y1="226.12" x2="36.9" y2="331.47" xlink:href="#linear-gradient-24"/><linearGradient id="linear-gradient-111" x1="45.12" y1="289.26" x2="45.12" y2="211.17" xlink:href="#linear-gradient-24"/><linearGradient id="linear-gradient-112" x1="590.32" y1="224.59" x2="590.32" y2="289.8" gradientTransform="matrix(-1, 0, 0, 1, 634.33, 0)" xlink:href="#linear-gradient-24"/><linearGradient id="linear-gradient-113" x1="34.01" y1="229.97" x2="5.43" y2="196" xlink:href="#linear-gradient-24"/><linearGradient id="linear-gradient-114" x1="91.9" y1="275.81" x2="91.9" y2="249.64" xlink:href="#linear-gradient-24"/><linearGradient id="linear-gradient-115" x1="107.87" y1="285.78" x2="107.87" y2="253.52" xlink:href="#linear-gradient-24"/><linearGradient id="linear-gradient-116" x1="107.87" y1="268.73" x2="107.87" y2="248.78" xlink:href="#linear-gradient-24"/><linearGradient id="linear-gradient-117" x1="107.87" y1="267.54" x2="107.87" y2="243.83" xlink:href="#linear-gradient-24"/><linearGradient id="linear-gradient-118" x1="117.01" y1="267.85" x2="103.88" y2="253.7" xlink:href="#linear-gradient"/><linearGradient id="linear-gradient-119" x1="97.62" y1="258.2" x2="118.85" y2="257.43" xlink:href="#linear-gradient"/><linearGradient id="linear-gradient-120" x1="97.66" y1="259.37" x2="118.89" y2="258.6" xlink:href="#linear-gradient"/><linearGradient id="linear-gradient-121" x1="97.59" y1="257.34" x2="118.82" y2="256.57" xlink:href="#linear-gradient"/></defs><g class="cls-1"><g id="Layer_2" data-name="Layer 2"><g id="OBJECTS"><path class="cls-2" d="M220.39,104.93c-7.77-4.49-20.34-4.48-28.06,0s-7.68,11.76.09,16.24,20.34,4.5,28.06,0,7.68-11.77-.09-16.26"/><path class="cls-3" d="M217.73,113c-6.3-3.63-16.47-3.63-22.72,0s-6.22,9.52.07,13.15,16.47,3.64,22.72,0,6.22-9.53-.07-13.17"/><path class="cls-4" d="M186.75,114v0a.11.11,0,0,1,0,0Z"/><path class="cls-5" d="M226.06,114a.11.11,0,0,1,0,0v0Z"/><path class="cls-6" d="M220.29,121.18a30.29,30.29,0,0,1-27.77,0c-3.29-1.9-5.19-4.31-5.7-6.79l5.35,26.22h0a8.38,8.38,0,0,0,4,4.21c5.69,3.25,14.88,3.25,20.53,0a8.25,8.25,0,0,0,3.93-4.22h0L226,114.39C225.48,116.87,223.58,119.28,220.29,121.18Z"/><path class="cls-7" d="M220.39,104.93c-7.77-4.49-20.34-4.48-28.06,0s-7.68,11.76.09,16.24,20.34,4.5,28.06,0S228.16,109.42,220.39,104.93Zm-1.49,15c-6.85,3.77-18,3.77-24.91,0s-6.94-9.89-.08-13.66,18-3.77,24.91,0S225.76,116.12,218.9,119.89Z"/><path class="cls-8" d="M209.14,51.91c0-3-1.22-4.6-2.73-4.6s-2.73,1.56-2.73,4.6,2.73,6.83,2.73,6.83S209.14,55,209.14,51.91Z"/><path class="cls-9" d="M211.26,112.09c2.71-1.37,4.66-1,5.34.35s-.16,3.14-2.87,4.51-7.32.66-7.32.66S208.56,113.47,211.26,112.09Z"/><path class="cls-10" d="M201.55,105.52c-2.71-1.37-4.66-1-5.34.35s.16,3.14,2.87,4.51,7.32.66,7.32.66S204.25,106.9,201.55,105.52Z"/><path class="cls-11" d="M211.26,97c2.71-1.38,4.66-1,5.34.35s-.16,3.14-2.87,4.51-7.32.66-7.32.66S208.56,98.36,211.26,97Z"/><path class="cls-12" d="M201.55,90.42c-2.71-1.38-4.66-1-5.34.35s.16,3.14,2.87,4.51,7.32.66,7.32.66S204.25,91.79,201.55,90.42Z"/><path class="cls-13" d="M211.26,81.88c2.71-1.37,4.66-1,5.34.35s-.16,3.14-2.87,4.52-7.32.66-7.32.66S208.56,83.26,211.26,81.88Z"/><path class="cls-14" d="M201.55,75.31c-2.71-1.37-4.66-1-5.34.35s.16,3.14,2.87,4.52,7.32.66,7.32.66S204.25,76.69,201.55,75.31Z"/><path class="cls-15" d="M211.26,66.78c2.71-1.37,4.66-1,5.34.35s-.16,3.14-2.87,4.51-7.32.66-7.32.66S208.56,68.16,211.26,66.78Z"/><path class="cls-16" d="M201.55,60.21c-2.71-1.37-4.66-1-5.34.35s.16,3.14,2.87,4.51,7.32.66,7.32.66S204.25,61.59,201.55,60.21Z"/><line class="cls-17" x1="206.41" y1="52.68" x2="206.41" y2="117.61"/><line class="cls-17" x1="212.95" y1="114.12" x2="206.46" y2="117.52"/><line class="cls-17" x1="212.95" y1="98.97" x2="206.46" y2="102.37"/><line class="cls-17" x1="212.95" y1="83.81" x2="206.46" y2="87.21"/><line class="cls-17" x1="212.95" y1="68.66" x2="206.46" y2="72.06"/><line class="cls-17" x1="199.91" y1="107.83" x2="206.4" y2="111.23"/><line class="cls-17" x1="199.91" y1="92.68" x2="206.4" y2="96.08"/><line class="cls-17" x1="199.91" y1="77.52" x2="206.4" y2="80.92"/><line class="cls-17" x1="199.91" y1="62.37" x2="206.4" y2="65.77"/><path class="cls-18" d="M97.23,176.43c-7.78-4.49-20.34-4.48-28.06,0s-7.68,11.77.09,16.25,20.34,4.49,28.06,0,7.68-11.77-.09-16.26"/><path class="cls-19" d="M94.56,184.54c-6.29-3.63-16.46-3.63-22.71,0s-6.22,9.52.07,13.15,16.47,3.64,22.72,0,6.22-9.54-.08-13.17"/><path class="cls-20" d="M63.58,185.5v0Z"/><path class="cls-21" d="M102.89,185.5v0Z"/><path class="cls-22" d="M97.12,192.68a30.27,30.27,0,0,1-27.76,0c-3.3-1.9-5.19-4.31-5.7-6.79L69,212.11h0a8.44,8.44,0,0,0,4,4.21c5.69,3.24,14.88,3.25,20.53,0a8.23,8.23,0,0,0,3.93-4.21h0l5.34-26.22C102.31,188.37,100.42,190.78,97.12,192.68Z"/><path class="cls-23" d="M97.23,176.43c-7.78-4.49-20.34-4.48-28.06,0s-7.68,11.77.09,16.25,20.34,4.49,28.06,0S105,180.92,97.23,176.43Zm-1.49,15c-6.86,3.77-18,3.77-24.91,0s-6.94-9.89-.08-13.66,18-3.78,24.91,0S102.59,187.62,95.74,191.39Z"/><path class="cls-24" d="M84,186.75s19-26.65,14.37-31.08-13.47,1.44-9.51-7c3.72-7.94,4.48-13.68.87-13.85s-6,10.61-9.11,1.43S69.25,124.85,68,127.71c-3.4,7.63,4.84,13.18,4.82,17.93s-13.51-3.49-13.65,1.21c-.3,9.7,17,8.38,15.56,13.18s-15.75-3.11-15.09,4C60.15,169.78,76.76,176.31,84,186.75Z"/><path class="cls-25" d="M72.57,132.67S90.24,155.84,84,186.75"/><path class="cls-25" d="M85.33,172.51S74.76,167,66.51,165.36"/><path class="cls-25" d="M92.84,158.6a23.22,23.22,0,0,0-8,6.59"/><path class="cls-25" d="M62.68,148.62s10.95,1.47,20.21,6.55"/><path class="cls-25" d="M88.46,140.86a27.06,27.06,0,0,0-7.29,8.76"/><path class="cls-26" d="M83.79,194.21s-.32-22.35-4.83-22.64-7.07,6.65-8.36.47c-1.2-5.81-3.18-9.16-5.31-7.66s1,8.21-4.58,4.74-11.26-1-10.79,1c1.26,5.52,8.28,4.82,10.26,7.32s-9.69,4.59-7.28,6.63c5,4.23,13.19-3,14.39.11S57,189.5,60.39,193c2,2.09,9.4-.46,16.49.71A38.8,38.8,0,0,0,83.79,194.21Z"/><path class="cls-27" d="M51.92,169.68s20.75,1.41,31.32,23.65"/><path class="cls-27" d="M77.87,176.75a34.61,34.61,0,0,1,1.25,9.53"/><path class="cls-27" d="M63.64,191.12s10.63-4.52,17.92-1"/><path class="cls-27" d="M57.73,182.63s8-3.78,15.06-3.33"/><path class="cls-27" d="M66.66,166.7a34.94,34.94,0,0,0,0,8"/><path class="cls-28" d="M83.29,194.21s-9-24.46-4.24-26.67,10.49,4.28,9.29-3c-1.12-6.82-.37-11.3,2.57-10.56s2.32,9.37,7,3.23,11.83-5.81,12.18-3.37c1,6.53-7,8.71-8.09,12.27s11.68.6,10.69,4.16c-2,7.32-15.61,2.23-15.61,6.15s13.39,1.43,11.17,6.62c-1.11,2.61-7.11,5.77-13.37,8.79C91,193.7,87.57,194.1,83.29,194.21Z"/><path class="cls-27" d="M107.06,154.55s-21.93,10.86-23.49,38.78"/><path class="cls-27" d="M103.86,181.82S91,180.4,84.17,188"/><path class="cls-27" d="M81.56,169.16s3.48,1.32,5.14,8.89"/><path class="cls-27" d="M106.76,170.86s-10.86-1-16.83.72"/><path class="cls-27" d="M90.82,157.73s2.94,4.09,3,8.23"/><path class="cls-29" d="M187.94,284l123.77-71.45a1.21,1.21,0,0,1,1.22,0l62.72,36.18a1.22,1.22,0,0,1,0,2.12L251.87,322.28a1.21,1.21,0,0,1-1.22,0l-62.71-36.2A1.23,1.23,0,0,1,187.94,284Z"/><path class="cls-30" d="M187.94,282.5,311.71,211a1.21,1.21,0,0,1,1.22,0l62.72,36.18a1.22,1.22,0,0,1,0,2.12L251.87,320.82a1.21,1.21,0,0,1-1.22,0l-62.71-36.2A1.23,1.23,0,0,1,187.94,282.5Z"/><polygon class="cls-31" points="190.2 283.56 312.32 213.05 373.39 248.28 251.26 318.81 190.2 283.56"/><path class="cls-32" d="M373.3,248.36l.09-.08-61.07-35.23c-30.87,2.77-61.1,35.36-61.1,35.36l61.08,35.14C312.51,283.52,344,251.31,373.3,248.36Z"/><path class="cls-31" d="M316.14,220.74c-21.24,2.66-42.46,20.44-51.58,29l-2.25-1.29c9.12-8.54,30.36-26.34,51.61-29Z"/><path class="cls-31" d="M337,232.76c-21.24,2.67-42.46,20.44-51.59,29l-2.24-1.29c9.12-8.54,30.35-26.34,51.61-29Z"/><path class="cls-31" d="M342.52,235.89c-21.24,2.66-42.46,20.44-51.59,29l-2.24-1.29c9.11-8.54,30.35-26.34,51.61-29Z"/><path class="cls-31" d="M267.43,251.37l13,7.41A149.1,149.1,0,0,1,305.2,239.9l-13-7.41A148.25,148.25,0,0,0,267.43,251.37Z"/><path class="cls-31" d="M332,229.78,319,222.36c-8.27,1-16.54,4.37-24.1,8.56l13,7.41C315.48,234.15,323.72,230.83,332,229.78Z"/><path class="cls-33" d="M312.21,283.63l.09-.08-61.07-35.23c-30.86,2.77-61.1,35.36-61.1,35.36l61.09,35.14.63-.11C254.41,316,282.94,286.58,312.21,283.63Z"/><path class="cls-34" d="M264.07,304.73c6-4.68,13.67-8.67,21.12-11.88,8.25-4.54,17.36-8.14,26.56-9.16l.55-.14-61.07-35.23c-17.68,1.59-35.14,12.95-46.84,22.38C217,277.92,263.89,304.76,264.07,304.73Z"/><path class="cls-35" d="M312.3,283.55l-61.07-35.23c-31.22.47-46.69,13.9-46.69,13.9s60.86,35.26,61.07,35.23A80.39,80.39,0,0,1,312.3,283.55Z"/><polygon class="cls-2" points="390.63 242.91 383.88 241.21 384.07 239.03 385.86 238.22 390.63 242.91"/><path class="cls-36" d="M390.63,242.91l-1.33-1.3a2,2,0,0,0-.29.4,2.24,2.24,0,0,0-.19.46Z"/><path class="cls-37" d="M379.94,234.94h0L327,205.6a1.79,1.79,0,1,0-1.73,3.13l53.59,29.71,5,2.77a5.73,5.73,0,0,1,1.95-3Z"/><path class="cls-2" d="M334.34,209.65l-5.9-3.27a1.79,1.79,0,0,0-1.74,3.13l5.68,3.15A5.75,5.75,0,0,1,334.34,209.65Z"/><path class="cls-38" d="M332.91,208.86,327,205.6a1.79,1.79,0,1,0-1.73,3.13l5.68,3.14A5.73,5.73,0,0,1,332.91,208.86Z"/><polygon class="cls-2" points="218.05 310 211.33 311.78 210.46 309.99 211.61 308.2 218.05 310"/><path class="cls-39" d="M218.05,310l-1.78-.49a1.79,1.79,0,0,0,0,1Z"/><path class="cls-40" d="M211.58,308.2h-5.94l-61.31,0a1.79,1.79,0,0,0,0,3.58l66,0h1A5.77,5.77,0,0,1,211.58,308.2Z"/><path class="cls-2" d="M152.7,308.17H146a1.79,1.79,0,0,0,0,3.58h6.49A5.7,5.7,0,0,1,152.7,308.17Z"/><path class="cls-41" d="M151.07,308.17h-6.74a1.79,1.79,0,0,0,0,3.58h6.49A5.7,5.7,0,0,1,151.07,308.17Z"/><polygon class="cls-2" points="205.19 326.58 198.25 326.95 197.67 325.03 199.26 323.5 205.19 326.58"/><path class="cls-42" d="M205.19,326.58l-1.64-.86a2.48,2.48,0,0,0-.17.48,2.74,2.74,0,0,0,0,.5Z"/><path class="cls-43" d="M199.23,323.5l-3.48-.73-62.34-13.09a1.79,1.79,0,1,0-.74,3.5l59.23,12.43h0l5.16,1.09.23.05h0l1,.2A5.69,5.69,0,0,1,199.23,323.5Z"/><path class="cls-2" d="M141.6,311.4,135,310a1.79,1.79,0,0,0-.73,3.51l6.35,1.33A5.76,5.76,0,0,1,141.6,311.4Z"/><path class="cls-44" d="M140,311.06l-6.6-1.38a1.79,1.79,0,1,0-.74,3.5l6.36,1.34A5.74,5.74,0,0,1,140,311.06Z"/><line class="cls-45" x1="166.08" y1="36.24" x2="167.41" y2="35.47"/><line class="cls-46" x1="171.7" y1="33" x2="224.49" y2="2.52"/><polyline class="cls-45" points="226.63 1.28 227.96 0.51 227.97 2.05"/><polyline class="cls-47" points="227.99 6.94 228.22 72.06 228.22 90.68"/><polyline class="cls-45" points="228.22 93.13 228.22 94.67 229.55 95.43"/><line class="cls-48" x1="233.74" y1="97.83" x2="285.26" y2="127.36"/><polyline class="cls-45" points="287.36 128.56 288.69 129.32 287.37 130.1"/><line class="cls-49" x1="282.76" y1="132.8" x2="226.16" y2="166.03"/><line class="cls-45" x1="223.86" y1="167.38" x2="222.53" y2="168.15"/><path class="cls-50" d="M169.41,16.4c.29-.14.57-.27.86-.39l.3-.13.79-.31.2-.07,1-.3.14,0a12.06,12.06,0,0,1,1.49-.32h0c.41-.07.81-.1,1.21-.13h.24c.35,0,.7,0,1,0l.18,0c.27,0,.55,0,.81.09l.25,0q.47.09.9.21h0a7.06,7.06,0,0,1,.81.29l.24.1.66.32.22.12-4-2.34-.1-.06a.6.6,0,0,1-.11-.06l-.67-.32-.12-.06-.11,0c-.26-.11-.53-.2-.81-.29h0c-.29-.08-.6-.15-.9-.21l-.11,0-.14,0c-.27,0-.54-.07-.82-.09l-.13,0h0c-.34,0-.69,0-1,0h-.1l-.14,0a10.16,10.16,0,0,0-1.2.12h0a11.68,11.68,0,0,0-1.49.32l-.09,0h-.05l-1,.3-.2.07-.8.31-.1,0a1.76,1.76,0,0,0-.2.09l-.86.39-.32.16c-.38.19-.76.39-1.14.61a26.5,26.5,0,0,0-2.42,1.59l4,2.33c.79-.57,1.6-1.1,2.42-1.58.38-.22.76-.42,1.14-.61Z"/><path class="cls-51" d="M149.85,11.3l.28-.12c.28-.12.56-.22.84-.32a1.15,1.15,0,0,1,.17-.06c.33-.12.66-.22,1-.31l.14,0c.53-.14,1.05-.25,1.55-.33h0A10.49,10.49,0,0,1,155,10l.25,0c.36,0,.72,0,1.07,0l.18,0c.28,0,.56.05.83.09l.26.05c.31.06.62.12.92.21h0q.43.13.84.3l.24.1c.23.1.46.21.68.33l.22.12-4-2.34-.1-.06-.12-.05a6.3,6.3,0,0,0-.69-.34l-.13-.06-.11,0c-.27-.11-.55-.21-.83-.3h0c-.3-.09-.61-.15-.92-.21l-.11,0h-.15a7.53,7.53,0,0,0-.83-.1l-.14,0h0c-.35,0-.7,0-1.06,0h-.11l-.14,0c-.4,0-.81.06-1.22.12h0a14.8,14.8,0,0,0-1.55.33l-.09,0h-.05c-.33.09-.65.19-1,.31l-.17.06c-.27.1-.55.2-.83.32l-.09,0-.2.09c-.3.13-.61.27-.91.42l-.34.16c-.39.2-.79.41-1.19.64-.59.34-1.18.72-1.76,1.12l-.56.4c-.39.29-.78.58-1.16.88l-.64.52c-.35.3-.7.6-1,.92l-.63.58-.39.37c-.14.13-.26.28-.4.42-.41.42-.82.86-1.23,1.31-.13.14-.26.27-.39.42s-.21.26-.31.38c-.25.29-.48.58-.72.88s-.32.37-.47.57-.24.33-.37.49l-.51.7-.35.48c-.2.27-.38.56-.57.84l-.36.53c0,.08-.1.15-.15.23-.32.51-.64,1-1,1.56l-.06.11-.18.32c-.21.38-.43.75-.63,1.13l-.27.53-.28.56-.25.48c-.21.44-.4.88-.6,1.32l-.1.22,0,.07c-.24.55-.47,1.1-.68,1.66,0,.1-.07.2-.11.31s-.15.4-.22.61l-.3.82c-.07.22-.13.44-.2.66s-.15.51-.23.76-.1.31-.14.47-.14.57-.21.85-.16.63-.23,1a3,3,0,0,0-.08.32c-.05.23-.08.46-.12.69-.09.49-.18,1-.25,1.47,0,.14-.06.28-.07.41,0,.31-.06.62-.09.93s0,.43-.07.65c0,.69-.08,1.37-.08,2,0,.25,0,.47,0,.71l-.86.33-.44.2-.38.17c-.46.22-.93.46-1.4.73s-1,.61-1.51,1l-.47.34c-.34.24-.67.49-1,.75l-.54.45c-.3.25-.6.51-.89.78l-.54.5-.33.31c-.12.11-.22.24-.34.36-.35.36-.71.73-1,1.12-.11.12-.23.23-.34.36s-.17.21-.26.32-.41.5-.62.75-.27.32-.4.49l-.31.42-.44.59-.3.41-.48.72c-.1.15-.21.3-.31.46l-.12.19c-.29.44-.56.89-.82,1.34l0,.09-.15.27c-.19.32-.37.64-.54,1-.08.15-.16.3-.23.45l-.24.48c-.07.13-.15.27-.21.41q-.27.56-.51,1.11l-.1.21a.17.17,0,0,1,0,.05c-.21.47-.4.95-.58,1.42l-.09.26c-.07.17-.13.34-.19.52s-.18.47-.26.71-.11.37-.17.55-.13.44-.19.65-.09.27-.13.41-.11.48-.17.72-.14.54-.2.81c0,.09,0,.19-.07.28s-.06.39-.1.58c-.08.42-.16.84-.22,1.26,0,.12,0,.23-.06.35s0,.52-.07.79,0,.37-.06.55c0,.59-.07,1.17-.07,1.75a15,15,0,0,0,1.25,6.31,8.32,8.32,0,0,0,3.36,3.82l4,2.34c-2.83-1.65-4.59-5.15-4.61-10.13,0-.58,0-1.16.07-1.75l.06-.56c0-.37.08-.75.14-1.13s.13-.84.21-1.26.11-.57.17-.86.13-.54.2-.81.19-.75.3-1.12c.06-.22.13-.44.2-.66q.2-.63.42-1.26c.07-.17.12-.35.19-.52.22-.58.45-1.16.7-1.74l.09-.2q.35-.77.72-1.53l.24-.47c.25-.48.5-1,.77-1.42l.15-.28c.32-.54.65-1.08,1-1.61.1-.16.2-.31.31-.46.25-.38.51-.76.78-1.13.14-.2.29-.4.44-.59s.47-.61.71-.91.4-.51.61-.75l.6-.68c.35-.39.7-.76,1.06-1.12s.44-.46.67-.68l.53-.49q.45-.41.9-.78c.18-.15.35-.31.54-.45s.66-.51,1-.75l.48-.35c.49-.34,1-.66,1.5-.95s.94-.51,1.4-.73l.39-.17c.44-.2.87-.38,1.3-.53,0-.24,0-.47,0-.71q0-1,.09-2c0-.22,0-.44.06-.66,0-.44.1-.88.16-1.33s.16-1,.25-1.48c.07-.33.13-.67.2-1s.15-.63.23-.94.23-.88.36-1.32c.07-.26.15-.51.23-.76.15-.5.32-1,.49-1.48.08-.21.15-.41.22-.62.26-.68.53-1.35.82-2,0-.07.07-.15.11-.23.26-.6.55-1.2.84-1.79l.28-.56c.29-.56.59-1.11.9-1.66.07-.11.12-.22.18-.32.38-.64.77-1.28,1.17-1.9l.36-.53c.29-.45.6-.89.91-1.32.17-.24.34-.47.52-.7s.55-.72.83-1.07l.72-.87c.23-.27.47-.54.71-.8.4-.45.81-.89,1.23-1.31.26-.27.52-.53.79-.79s.41-.39.62-.58.69-.62,1-.92l.63-.52c.38-.31.77-.59,1.16-.88l.56-.4c.58-.4,1.17-.78,1.77-1.12.4-.24.79-.44,1.19-.64l.33-.16C149.24,11.57,149.54,11.43,149.85,11.3Z"/><path class="cls-52" d="M147.41,12.52c8.84-5.11,16.26-2.24,18.11,6.23.79-.57,1.6-1.1,2.42-1.58C177.89,11.42,186,16,186,27.49c0,10.69-7,23.56-16.05,29.89L126,82.89c-8.73,5-15.83,1-15.86-9s7-22.24,15.75-27.27A18.35,18.35,0,0,1,129,45.17c0-.24,0-.47,0-.71C128.93,32.72,137.19,18.42,147.41,12.52Z"/><path class="cls-53" d="M433.22,203.1l-39.17,22.61v11.75l40.19-23.2a1,1,0,0,0,.52-.89V204A1,1,0,0,0,433.22,203.1Z"/><path class="cls-54" d="M394.05,225.71l.5-.29.65.38,39.17-22.61-61.05-35.26h0a1,1,0,0,0-1.14-.09h0L333,190.46h0Z"/><polygon class="cls-55" points="395.25 235.38 395.26 235.38 395.26 226.41 334.2 191.15 334.2 202.91 394.05 237.46 395.25 235.38"/><polygon class="cls-56" points="394.05 225.71 394.05 227.1 332.99 191.85 332.99 190.46 394.05 225.71"/><polygon class="cls-57" points="394.05 236.07 394.05 237.46 332.99 202.21 332.99 200.82 394.05 236.07"/><polygon class="cls-58" points="394.05 236.07 395.25 235.38 334.2 200.12 332.99 200.82 394.05 236.07"/><path class="cls-59" d="M394.05,236.07v1.39l39.42-22.76h0l.77-.44a1,1,0,0,0,.52-.89V204a1,1,0,0,0-.09-.34h0l0,0a.74.74,0,0,0-.14-.22.81.81,0,0,0-.12-.14l-.19-.13L434,203a1.2,1.2,0,0,0-.2,0h-.25s-.06,0-.09,0v0a.81.81,0,0,0-.25.08l-39.17,22.61v1.39l39.42-22.76v9Z"/><path class="cls-60" d="M434.38,190.12l-39.17,22.61v11.75l40.19-23.2a1,1,0,0,0,.51-.89V191A1,1,0,0,0,434.38,190.12Z"/><path class="cls-61" d="M395.21,212.73l.49-.29.66.38,39.17-22.61L374.47,155h0a1,1,0,0,0-1.14-.09h0l-39.17,22.62h0Z"/><polygon class="cls-62" points="396.41 222.4 396.42 222.4 396.42 213.43 335.35 178.17 335.35 189.93 395.2 224.48 396.41 222.4"/><polygon class="cls-63" points="395.21 212.73 395.21 214.12 334.14 178.87 334.15 177.48 395.21 212.73"/><polygon class="cls-64" points="395.21 223.09 395.21 224.48 334.14 189.23 334.15 187.84 395.21 223.09"/><polygon class="cls-65" points="395.21 223.09 396.41 222.4 335.35 187.14 334.15 187.84 395.21 223.09"/><path class="cls-66" d="M395.21,223.09v1.39l39.42-22.76h0l.77-.44a1,1,0,0,0,.51-.89V191a1,1,0,0,0-.08-.34h0s0,0,0,0a1.07,1.07,0,0,0-.15-.22.76.76,0,0,0-.11-.14,1.37,1.37,0,0,0-.2-.13l-.19-.09-.2,0h-.25s-.06,0-.09,0v0a.73.73,0,0,0-.25.08l-39.17,22.61v1.39l39.42-22.76v9Z"/><path class="cls-67" d="M428.77,179.71,389.6,202.33v11.75l40.2-23.21a1,1,0,0,0,.51-.89V180.6A1,1,0,0,0,428.77,179.71Z"/><path class="cls-68" d="M389.6,202.33l.5-.29.66.38,39.17-22.62-61.06-35.25h0a1,1,0,0,0-1.14-.09h0l-39.18,22.61h0Z"/><polygon class="cls-69" points="390.81 211.99 390.81 212 390.81 203.02 329.75 167.77 329.75 179.52 389.6 214.08 390.81 211.99"/><polygon class="cls-70" points="389.6 202.32 389.6 203.71 328.54 168.47 328.55 167.07 389.6 202.32"/><polygon class="cls-71" points="389.6 212.69 389.6 214.07 328.54 178.83 328.55 177.43 389.6 212.69"/><polygon class="cls-72" points="389.6 212.69 390.81 211.99 329.75 176.74 328.55 177.43 389.6 212.69"/><path class="cls-73" d="M389.6,212.69v1.39L429,191.32h0l.78-.45a1,1,0,0,0,.51-.89V180.6a.94.94,0,0,0-.08-.34h0s0,0,0,0a.91.91,0,0,0-.15-.23,1.71,1.71,0,0,0-.11-.14.82.82,0,0,0-.2-.12.66.66,0,0,0-.19-.09l-.21,0H429v0a1.21,1.21,0,0,0-.25.08L389.6,202.33v1.38L429,181v9Z"/><path class="cls-74" d="M432.19,164.7,393,187.32v11.75l40.2-23.21a1,1,0,0,0,.51-.88v-9.39A1,1,0,0,0,432.19,164.7Z"/><path class="cls-75" d="M393,187.32l.5-.29.66.38,39.17-22.62-61.06-35.25h0a1,1,0,0,0-1.14-.1h0L332,152.07h0Z"/><polygon class="cls-76" points="394.23 196.99 394.23 196.99 394.23 188.02 333.17 152.76 333.17 164.52 393.02 199.07 394.23 196.99"/><polygon class="cls-77" points="393.02 187.32 393.02 188.71 331.96 153.46 331.96 152.07 393.02 187.32"/><polygon class="cls-78" points="393.02 197.68 393.02 199.07 331.96 163.82 331.96 162.43 393.02 197.68"/><polygon class="cls-79" points="393.02 197.68 394.23 196.99 333.17 161.73 331.96 162.43 393.02 197.68"/><path class="cls-80" d="M393,197.68v1.39l39.42-22.76h0l.78-.45a1,1,0,0,0,.51-.88v-9.39a1,1,0,0,0-.08-.34h0s0,0,0,0a1,1,0,0,0-.14-.23l-.11-.13a1.37,1.37,0,0,0-.2-.13,1.11,1.11,0,0,0-.19-.09,1.52,1.52,0,0,0-.21,0,.65.65,0,0,0-.24,0h-.1v0a1.17,1.17,0,0,0-.25.07L393,187.32v1.39L432.44,166v9Z"/><path class="cls-81" d="M235.82,137.68l30.12,17.4v9L235,146.27a.79.79,0,0,1-.39-.68v-7.22A.79.79,0,0,1,235.82,137.68Z"/><path class="cls-82" d="M265.94,155.08l-.38-.23-.51.3-30.12-17.4,46.95-27.11h0a.78.78,0,0,1,.88-.07h0L312.9,128h0Z"/><polygon class="cls-83" points="265.01 162.51 265.01 162.51 265.01 155.61 311.97 128.5 311.97 137.54 265.94 164.11 265.01 162.51"/><polygon class="cls-84" points="265.94 155.08 265.94 156.14 312.9 129.04 312.89 127.97 265.94 155.08"/><polygon class="cls-85" points="265.94 163.04 265.94 164.11 312.9 137.01 312.89 135.94 265.94 163.04"/><polygon class="cls-86" points="265.94 163.04 265.01 162.51 311.97 135.4 312.89 135.94 265.94 163.04"/><path class="cls-87" d="M265.94,163v1.07l-30.32-17.5h0l-.59-.34a.79.79,0,0,1-.39-.68v-7.22a.71.71,0,0,1,.06-.26h0l0,0a1.08,1.08,0,0,1,.11-.18.81.81,0,0,1,.09-.1.56.56,0,0,1,.15-.1l.15-.07.15,0h.26v0a.73.73,0,0,1,.2.05l30.12,17.4v1.06l-30.32-17.5v6.9Z"/><g class="cls-1"><path class="cls-88" d="M206.06,60.86a2.29,2.29,0,0,1,.48-.1h0a1.8,1.8,0,0,1,.47,0h0a1.52,1.52,0,0,1,.42.16l-2.16-1.26h0l-.14-.07-.16-.05-.1,0h-.06l-.17,0h-.41a1.22,1.22,0,0,0-.26.06l-.11,0-.1,0-.13,0a4,4,0,0,0-.41.21L88.09,126.38a4.91,4.91,0,0,0-.55.38l-.17.15-.25.22-.11.12-.1.1-.11.12a3.25,3.25,0,0,0-.23.29l-.08.1,0,.06-.08.1c-.05.08-.11.16-.16.25l-.16.24v.05c0,.06-.07.13-.11.2s-.09.16-.13.25l-.1.22h0v0c0,.08-.07.17-.11.26l-.1.27a.74.74,0,0,1,0,.14l0,.06,0,.1c0,.11,0,.22-.08.33l0,.2a.43.43,0,0,0,0,.11s0,.06,0,.09a3.63,3.63,0,0,0,0,.57l.24,85.75a2,2,0,0,0,.84,1.86l2.17,1.25a2,2,0,0,1-.85-1.86l-.24-85.74a5.16,5.16,0,0,1,0-.67s0-.07,0-.1a4.8,4.8,0,0,1,.15-.63v-.06c.08-.23.16-.46.26-.69h0a6.24,6.24,0,0,1,.35-.68v0c.12-.21.26-.42.4-.62l0,0a5.27,5.27,0,0,1,.43-.51l.09-.1a4,4,0,0,1,.37-.35l.16-.14a4.91,4.91,0,0,1,.55-.38l115.17-66.5a4.09,4.09,0,0,1,.54-.24Z"/><path class="cls-89" d="M205.42,61.14c1.61-.92,2.91-.18,2.92,1.66l.24,85.74a6.36,6.36,0,0,1-2.9,5L90.51,220.05c-1.6.92-2.9.19-2.91-1.66l-.24-85.74a6.36,6.36,0,0,1,2.89-5Z"/></g><g class="cls-1"><path class="cls-90" d="M285.32,200.7h0v-2.5a1.31,1.31,0,0,1-.08.43.08.08,0,0,1,0,0,1.45,1.45,0,0,1-.2.39l0,.06a1.72,1.72,0,0,1-.32.35,1.28,1.28,0,0,1-.22.17,2.41,2.41,0,0,1-.35.25L168.94,266.38a5.45,5.45,0,0,1-.85.37l-.31.09-.36.09a4.89,4.89,0,0,1-.53.09h-.1a5.37,5.37,0,0,1-.7,0H166c-.23,0-.45,0-.68,0h-.1c-.22,0-.44-.07-.65-.12l-.12,0-.61-.19-.05,0a3.64,3.64,0,0,1-.63-.3L89,223.3a2.34,2.34,0,0,1-1.11-1.21,1.41,1.41,0,0,1-.07-.45h0v2.5A2,2,0,0,0,89,225.8l74.14,43.09a4.27,4.27,0,0,0,.61.29h.07l.43.14.17.05.12,0,.13,0,.41.07h.22l.17,0,.4,0h.42l.45,0h0l.1,0,.37,0,.15,0a2.22,2.22,0,0,0,.37-.09l.21,0,.1,0a4.27,4.27,0,0,0,.84-.37l115.17-66.49.14-.08c.08-.05.14-.11.21-.16l.22-.18a.1.1,0,0,0,.05,0,2,2,0,0,0,.24-.26l0,0,0-.06a1.1,1.1,0,0,0,.09-.14,1.63,1.63,0,0,0,.11-.23v0a.06.06,0,0,0,0,0,.84.84,0,0,0,.05-.17,1.79,1.79,0,0,0,0-.23v0Z"/><path class="cls-91" d="M204.2,153.46a6.39,6.39,0,0,1,5.79,0l74.14,43.09c1.59.92,1.58,2.42,0,3.35L168.94,266.38a6.36,6.36,0,0,1-5.79,0L89,223.3c-1.59-.92-1.58-2.42,0-3.35Z"/></g><g class="cls-92"><g class="cls-1"><path class="cls-93" d="M199.64,162l5.19-3a1.23,1.23,0,0,1,1.12,0l1.54.9a.34.34,0,0,1,0,.65l-5.19,3a1.23,1.23,0,0,1-1.12,0l-1.54-.89a.35.35,0,0,1,0-.66"/><path class="cls-93" d="M191.87,166.47l5.18-3a1.25,1.25,0,0,1,1.13,0l1.54.89a.35.35,0,0,1,0,.66l-5.18,3a1.25,1.25,0,0,1-1.13,0l-1.54-.89a.35.35,0,0,1,0-.66"/><path class="cls-93" d="M184.09,171l5.19-3a1.23,1.23,0,0,1,1.12,0l1.54.89a.35.35,0,0,1,0,.66l-5.19,3a1.23,1.23,0,0,1-1.12,0l-1.54-.89c-.31-.18-.31-.47,0-.66"/><path class="cls-93" d="M176.31,175.45l5.19-3a1.23,1.23,0,0,1,1.12,0l1.54.9c.31.18.31.47,0,.65L179,177a1.23,1.23,0,0,1-1.12,0l-1.54-.89c-.31-.18-.31-.47,0-.66"/><path class="cls-93" d="M168.54,179.94l5.18-3a1.23,1.23,0,0,1,1.12,0l1.54.9a.34.34,0,0,1,0,.65l-5.18,3a1.25,1.25,0,0,1-1.13,0l-1.54-.89c-.31-.18-.31-.47,0-.66"/><path class="cls-93" d="M160.76,184.44l5.18-3a1.25,1.25,0,0,1,1.13,0l1.54.9a.35.35,0,0,1,0,.65l-5.18,3a1.25,1.25,0,0,1-1.13,0l-1.54-.89c-.31-.18-.3-.47,0-.65"/><path class="cls-93" d="M153,188.93l5.19-3a1.23,1.23,0,0,1,1.12,0l1.54.9a.34.34,0,0,1,0,.65l-5.19,3a1.23,1.23,0,0,1-1.12,0l-1.54-.89a.34.34,0,0,1,0-.65"/><path class="cls-93" d="M145.2,193.42l5.19-3a1.23,1.23,0,0,1,1.12,0l1.54.9a.34.34,0,0,1,0,.65l-5.19,3a1.23,1.23,0,0,1-1.12,0l-1.54-.89a.34.34,0,0,1,0-.65"/><path class="cls-93" d="M137.43,197.91l5.18-3a1.25,1.25,0,0,1,1.13,0l1.54.9a.35.35,0,0,1,0,.65l-5.18,3a1.25,1.25,0,0,1-1.13,0l-1.54-.89a.34.34,0,0,1,0-.65"/><path class="cls-93" d="M129.65,202.4l5.18-3a1.28,1.28,0,0,1,1.13,0l1.53.9c.31.18.32.47,0,.65l-5.18,3a1.25,1.25,0,0,1-1.13,0l-1.54-.89c-.31-.18-.3-.47,0-.65"/><path class="cls-93" d="M121.87,206.89l5.18-3a1.28,1.28,0,0,1,1.13,0l1.54.9c.31.18.31.47,0,.65l-5.18,3a1.25,1.25,0,0,1-1.13,0l-1.54-.89a.35.35,0,0,1,0-.65"/><path class="cls-93" d="M114.09,211.38l5.19-3a1.29,1.29,0,0,1,1.12,0l1.54.9a.34.34,0,0,1,0,.65l-5.19,3a1.23,1.23,0,0,1-1.12,0l-1.54-.89a.34.34,0,0,1,0-.65"/><path class="cls-93" d="M106.32,215.87l5.18-3a1.32,1.32,0,0,1,1.13,0l1.53.9a.34.34,0,0,1,0,.65l-5.19,3a1.23,1.23,0,0,1-1.12,0l-1.54-.89c-.31-.18-.3-.47,0-.65"/><path class="cls-93" d="M98.54,220.36l5.18-3a1.25,1.25,0,0,1,1.13,0l1.54.9c.31.18.3.47,0,.65l-5.18,3a1.25,1.25,0,0,1-1.13,0L98.54,221a.34.34,0,0,1,0-.65"/><path class="cls-93" d="M204.16,164.61l5.18-3a1.25,1.25,0,0,1,1.13,0l3.86,2.25c.3.17.3.47,0,.65l-5.18,3a1.25,1.25,0,0,1-1.13,0l-3.86-2.24c-.31-.18-.3-.47,0-.65"/><path class="cls-93" d="M196.38,169.1l5.19-3a1.23,1.23,0,0,1,1.12,0l3.86,2.25a.34.34,0,0,1,0,.65l-5.19,3a1.23,1.23,0,0,1-1.12,0l-3.86-2.24a.34.34,0,0,1,0-.65"/><path class="cls-93" d="M188.6,173.59l5.19-3a1.23,1.23,0,0,1,1.12,0l3.86,2.25a.34.34,0,0,1,0,.65l-5.19,3a1.23,1.23,0,0,1-1.12,0l-3.86-2.24a.34.34,0,0,1,0-.65"/><path class="cls-93" d="M180.83,178.08l5.18-3a1.26,1.26,0,0,1,1.12,0l3.86,2.25a.34.34,0,0,1,0,.65l-5.18,3a1.25,1.25,0,0,1-1.13,0l-3.86-2.24c-.31-.18-.31-.47,0-.65"/><path class="cls-93" d="M173.05,182.57l5.18-3a1.26,1.26,0,0,1,1.12,0l3.86,2.25c.31.18.32.47,0,.65l-5.18,3a1.25,1.25,0,0,1-1.13,0L173,183.22c-.31-.18-.31-.47,0-.65"/><path class="cls-93" d="M165.27,187.06l5.18-3a1.32,1.32,0,0,1,1.13,0l3.86,2.25c.31.18.3.47,0,.65l-5.18,3a1.25,1.25,0,0,1-1.13,0l-3.86-2.24a.35.35,0,0,1,0-.65"/><path class="cls-93" d="M157.49,191.55l5.19-3a1.29,1.29,0,0,1,1.12,0l3.86,2.25a.34.34,0,0,1,0,.65l-5.19,3a1.23,1.23,0,0,1-1.12,0l-3.86-2.24a.34.34,0,0,1,0-.65"/><path class="cls-93" d="M149.71,196l5.19-3a1.29,1.29,0,0,1,1.12,0l3.87,2.25a.35.35,0,0,1,0,.65l-5.18,3a1.25,1.25,0,0,1-1.13,0l-3.86-2.24a.34.34,0,0,1,0-.65"/><path class="cls-93" d="M141.94,200.53l5.18-3a1.25,1.25,0,0,1,1.13,0l3.86,2.25c.31.18.3.47,0,.65l-5.18,3a1.25,1.25,0,0,1-1.13,0l-3.86-2.24a.34.34,0,0,1,0-.65"/><path class="cls-93" d="M134.16,205l5.18-3a1.22,1.22,0,0,1,1.13,0l3.86,2.24a.34.34,0,0,1,0,.65l-5.18,3a1.28,1.28,0,0,1-1.13,0l-3.86-2.25c-.31-.18-.3-.47,0-.65"/><path class="cls-93" d="M126.38,209.51l5.19-3a1.2,1.2,0,0,1,1.12,0l3.86,2.24a.34.34,0,0,1,0,.65l-5.19,3a1.23,1.23,0,0,1-1.12,0l-3.86-2.24a.34.34,0,0,1,0-.65"/><path class="cls-93" d="M118.6,214l5.19-3a1.23,1.23,0,0,1,1.12,0l3.86,2.24a.34.34,0,0,1,0,.65l-5.19,3a1.23,1.23,0,0,1-1.12,0l-3.86-2.24a.34.34,0,0,1,0-.65"/><path class="cls-93" d="M103.05,223l7.21-4.16.38-.22,5.37-3.1a1.25,1.25,0,0,1,1.13,0l3.86,2.24c.31.18.3.47,0,.65l-5.37,3.1-.38.22L108,225.87a1.23,1.23,0,0,1-1.12,0l-3.86-2.24a.34.34,0,0,1,0-.65"/><path class="cls-93" d="M204.11,172.55l1.69-1,4.06-2.34,6.31-3.65a1.25,1.25,0,0,1,1.13,0l3.86,2.25a.34.34,0,0,1,0,.65l-6.32,3.64-4.06,2.35-1.69,1a1.23,1.23,0,0,1-1.12,0l-3.86-2.24a.34.34,0,0,1,0-.65"/><path class="cls-93" d="M195.44,177.56l5.18-3a1.25,1.25,0,0,1,1.13,0l3.86,2.25a.35.35,0,0,1,0,.65l-5.18,3a1.25,1.25,0,0,1-1.13,0l-3.86-2.24c-.31-.18-.31-.47,0-.65"/><path class="cls-93" d="M187.66,182.05l5.18-3a1.2,1.2,0,0,1,1.12,0l3.86,2.24c.31.18.32.47,0,.65l-5.18,3a1.23,1.23,0,0,1-1.12,0l-3.86-2.24c-.31-.18-.32-.47,0-.65"/><path class="cls-93" d="M179.88,186.54l5.18-3a1.22,1.22,0,0,1,1.13,0l3.86,2.24c.31.18.31.47,0,.65l-5.18,3a1.25,1.25,0,0,1-1.13,0l-3.86-2.24a.35.35,0,0,1,0-.65"/><path class="cls-93" d="M172.1,191l5.19-3a1.23,1.23,0,0,1,1.12,0l3.86,2.24a.34.34,0,0,1,0,.65l-5.19,3a1.23,1.23,0,0,1-1.12,0l-3.86-2.24a.34.34,0,0,1,0-.65"/><path class="cls-93" d="M164.32,195.52l5.19-3a1.29,1.29,0,0,1,1.12,0l3.86,2.25a.34.34,0,0,1,0,.65l-5.19,3a1.23,1.23,0,0,1-1.12,0l-3.86-2.24a.34.34,0,0,1,0-.65"/><path class="cls-93" d="M156.55,200l5.18-3a1.32,1.32,0,0,1,1.13,0l3.86,2.25c.31.18.3.47,0,.65l-5.18,3a1.25,1.25,0,0,1-1.13,0l-3.86-2.24a.35.35,0,0,1,0-.65"/><path class="cls-93" d="M148.77,204.5l5.19-3a1.29,1.29,0,0,1,1.12,0l3.86,2.25a.34.34,0,0,1,0,.65l-5.19,3a1.2,1.2,0,0,1-1.12,0l-3.86-2.24a.34.34,0,0,1,0-.65"/><path class="cls-93" d="M141,209l5.19-3a1.23,1.23,0,0,1,1.12,0l3.86,2.24a.34.34,0,0,1,0,.65l-5.18,3a1.28,1.28,0,0,1-1.13,0L141,209.64a.34.34,0,0,1,0-.65"/><path class="cls-93" d="M133.21,213.48l5.19-3a1.23,1.23,0,0,1,1.12,0l3.86,2.24a.34.34,0,0,1,0,.65l-5.19,3a1.29,1.29,0,0,1-1.12,0l-3.86-2.25a.34.34,0,0,1,0-.65"/><path class="cls-93" d="M125.44,218l5.18-3a1.25,1.25,0,0,1,1.13,0l3.86,2.24a.35.35,0,0,1,0,.65l-5.18,3a1.32,1.32,0,0,1-1.13,0l-3.86-2.25c-.31-.18-.3-.47,0-.65"/><path class="cls-93" d="M215.62,173.82l7.39-4.27a1.29,1.29,0,0,1,1.12,0L228,171.8a.34.34,0,0,1,0,.65l-7.39,4.26a1.23,1.23,0,0,1-1.12,0l-3.86-2.24a.34.34,0,0,1,0-.65"/><path class="cls-93" d="M207.66,178.42l5.18-3a1.25,1.25,0,0,1,1.13,0l3.86,2.25c.31.17.3.47,0,.65l-5.18,3a1.25,1.25,0,0,1-1.13,0l-3.86-2.24a.35.35,0,0,1,0-.65"/><path class="cls-93" d="M199.88,182.91l5.19-3a1.23,1.23,0,0,1,1.12,0l3.86,2.25a.34.34,0,0,1,0,.65l-5.19,3a1.23,1.23,0,0,1-1.12,0l-3.86-2.24a.34.34,0,0,1,0-.65"/><path class="cls-93" d="M192.1,187.4l5.19-3a1.23,1.23,0,0,1,1.12,0l3.86,2.25a.34.34,0,0,1,0,.65l-5.19,3a1.23,1.23,0,0,1-1.12,0l-3.86-2.24a.34.34,0,0,1,0-.65"/><path class="cls-93" d="M184.33,191.89l5.18-3a1.25,1.25,0,0,1,1.13,0l3.86,2.24c.31.18.3.48,0,.66l-5.18,3a1.25,1.25,0,0,1-1.13,0l-3.86-2.24a.34.34,0,0,1,0-.65"/><path class="cls-93" d="M176.55,196.38l5.18-3a1.28,1.28,0,0,1,1.13,0l3.86,2.25a.34.34,0,0,1,0,.65l-5.18,3a1.25,1.25,0,0,1-1.13,0L176.54,197c-.31-.18-.3-.47,0-.65"/><path class="cls-93" d="M168.77,200.87l5.19-3a1.26,1.26,0,0,1,1.12,0l3.86,2.25a.34.34,0,0,1,0,.65l-5.19,3a1.23,1.23,0,0,1-1.12,0l-3.86-2.24a.34.34,0,0,1,0-.65"/><path class="cls-93" d="M161,205.36l5.19-3a1.23,1.23,0,0,1,1.12,0l3.86,2.25a.34.34,0,0,1,0,.65l-5.19,3a1.23,1.23,0,0,1-1.12,0L161,206a.34.34,0,0,1,0-.65"/><path class="cls-93" d="M153.22,209.85l5.18-3a1.25,1.25,0,0,1,1.13,0l3.86,2.25a.35.35,0,0,1,0,.65l-5.18,3a1.25,1.25,0,0,1-1.13,0l-3.86-2.24c-.31-.18-.3-.47,0-.65"/><path class="cls-93" d="M145.44,214.34l5.19-3a1.23,1.23,0,0,1,1.12,0l3.86,2.25a.34.34,0,0,1,0,.65l-5.19,3a1.23,1.23,0,0,1-1.12,0L145.44,215a.34.34,0,0,1,0-.65"/><path class="cls-93" d="M137.66,218.83l5.18-3a1.22,1.22,0,0,1,1.13,0l3.86,2.25a.34.34,0,0,1,0,.65l-5.19,3a1.23,1.23,0,0,1-1.12,0l-3.86-2.24a.34.34,0,0,1,0-.65"/><path class="cls-93" d="M129.89,223.32l5.18-3a1.2,1.2,0,0,1,1.12,0l3.86,2.24a.34.34,0,0,1,0,.65l-5.18,3a1.25,1.25,0,0,1-1.13,0L129.88,224c-.31-.18-.31-.47,0-.65"/><path class="cls-93" d="M109.88,227l13-7.48a1.23,1.23,0,0,1,1.12,0l3.86,2.24a.34.34,0,0,1,0,.65l-1.6.92c-.55.32-.56.84,0,1.15l5.28,3.08c.31.17.31.46,0,.65l-9.8,5.66a1.32,1.32,0,0,1-1.13,0l-6.27-3.65-2.49-1.45-1.93-1.12a.34.34,0,0,1,0-.65"/><path class="cls-93" d="M224.65,176.52l5.19-3a1.29,1.29,0,0,1,1.12,0l3.86,2.25a.34.34,0,0,1,0,.65l-5.19,3a1.23,1.23,0,0,1-1.12,0l-3.86-2.24a.34.34,0,0,1,0-.65"/><path class="cls-93" d="M216.88,181l5.18-3a1.32,1.32,0,0,1,1.13,0l3.86,2.25c.31.18.3.47,0,.65l-5.18,3a1.25,1.25,0,0,1-1.13,0l-3.86-2.24a.35.35,0,0,1,0-.65"/><path class="cls-93" d="M209.1,185.5l5.19-3a1.29,1.29,0,0,1,1.12,0l3.86,2.25a.34.34,0,0,1,0,.65l-5.19,3a1.23,1.23,0,0,1-1.12,0l-3.86-2.24a.34.34,0,0,1,0-.65"/><path class="cls-93" d="M201.32,190l5.19-3a1.23,1.23,0,0,1,1.12,0l3.86,2.24a.34.34,0,0,1,0,.65l-5.18,3a1.25,1.25,0,0,1-1.13,0l-3.86-2.24a.34.34,0,0,1,0-.65"/><path class="cls-93" d="M193.55,194.48l5.18-3a1.23,1.23,0,0,1,1.12,0l3.86,2.24a.34.34,0,0,1,0,.65l-5.18,3a1.28,1.28,0,0,1-1.13,0l-3.86-2.25c-.31-.18-.31-.47,0-.65"/><path class="cls-93" d="M185.77,199l5.18-3a1.25,1.25,0,0,1,1.13,0l3.86,2.24a.35.35,0,0,1,0,.65l-5.18,3a1.32,1.32,0,0,1-1.13,0l-3.86-2.25c-.31-.18-.3-.47,0-.65"/><path class="cls-93" d="M178,203.46l5.19-3a1.23,1.23,0,0,1,1.12,0l3.86,2.24a.34.34,0,0,1,0,.65l-5.19,3a1.29,1.29,0,0,1-1.12,0L178,204.11a.34.34,0,0,1,0-.65"/><path class="cls-93" d="M170.21,208l5.19-3a1.23,1.23,0,0,1,1.12,0l3.86,2.24a.34.34,0,0,1,0,.65l-5.19,3a1.26,1.26,0,0,1-1.12,0l-3.86-2.24a.34.34,0,0,1,0-.65"/><path class="cls-93" d="M162.44,212.44l5.18-3a1.25,1.25,0,0,1,1.13,0l3.86,2.24a.35.35,0,0,1,0,.65l-5.18,3a1.22,1.22,0,0,1-1.13,0l-3.86-2.24c-.31-.18-.31-.47,0-.65"/><path class="cls-93" d="M154.66,216.93l5.18-3a1.23,1.23,0,0,1,1.12,0l3.87,2.24a.34.34,0,0,1,0,.65l-5.18,3a1.22,1.22,0,0,1-1.13,0l-3.86-2.25c-.31-.17-.3-.47,0-.65"/><path class="cls-93" d="M146.88,221.42l5.18-3a1.25,1.25,0,0,1,1.13,0l3.86,2.24a.34.34,0,0,1,0,.65l-5.19,3a1.23,1.23,0,0,1-1.12,0l-3.87-2.25a.35.35,0,0,1,0-.65"/><path class="cls-93" d="M139.1,225.91l5.19-3a1.23,1.23,0,0,1,1.12,0l3.86,2.24a.34.34,0,0,1,0,.65l-5.19,3a1.23,1.23,0,0,1-1.12,0l-3.86-2.25a.34.34,0,0,1,0-.65"/><path class="cls-93" d="M123.55,234.89l7.21-4.16.38-.22,5.37-3.1a1.25,1.25,0,0,1,1.13,0l3.86,2.24a.35.35,0,0,1,0,.65l-5.37,3.1-.38.22-7.21,4.17a1.23,1.23,0,0,1-1.12,0l-3.87-2.25a.35.35,0,0,1,0-.65"/><path class="cls-93" d="M231.49,180.49l5.18-3a1.25,1.25,0,0,1,1.13,0l3.86,2.24c.31.18.3.47,0,.65l-5.18,3a1.22,1.22,0,0,1-1.13,0l-3.85-2.24a.34.34,0,0,1,0-.65"/><path class="cls-93" d="M223.71,185l5.19-3a1.25,1.25,0,0,1,1.13,0l3.85,2.24a.34.34,0,0,1,0,.65l-5.19,3a1.2,1.2,0,0,1-1.12,0l-3.86-2.24a.34.34,0,0,1,0-.65"/><path class="cls-93" d="M215.93,189.47l5.19-3a1.25,1.25,0,0,1,1.13,0l3.85,2.24c.32.18.31.47,0,.65l-5.19,3a1.17,1.17,0,0,1-1.12,0l-3.85-2.24c-.32-.18-.32-.47,0-.65"/><path class="cls-93" d="M208.16,194l5.18-3a1.25,1.25,0,0,1,1.13,0l3.85,2.24c.32.18.31.47,0,.65l-5.18,3a1.19,1.19,0,0,1-1.13,0l-3.85-2.24c-.31-.18-.32-.47,0-.65"/><path class="cls-93" d="M169.27,216.41l4.82-2.78.93-.54,1.46-.84,6.32-3.65,1.46-.84,6.31-3.65,1.47-.84,6.31-3.65,7.21-4.16a1.25,1.25,0,0,1,1.13,0l3.86,2.24c.31.18.31.47,0,.65l-7.21,4.17L197,206.16l-1.47.85-6.31,3.64-1.46.85-6.32,3.64L180,216l-.92.53-4.83,2.79a1.23,1.23,0,0,1-1.12,0l-3.86-2.24c-.31-.19-.32-.48,0-.66"/><path class="cls-93" d="M161.49,220.9l5.18-3a1.25,1.25,0,0,1,1.13,0l3.86,2.24c.31.18.31.47,0,.65l-5.18,3a1.25,1.25,0,0,1-1.13,0l-3.85-2.24a.35.35,0,0,1,0-.66"/><path class="cls-93" d="M153.71,225.39l5.19-3a1.25,1.25,0,0,1,1.13,0l3.85,2.24a.34.34,0,0,1,0,.65l-5.19,3a1.23,1.23,0,0,1-1.12,0l-3.86-2.24a.35.35,0,0,1,0-.66"/><path class="cls-93" d="M145.93,229.88l5.19-3a1.25,1.25,0,0,1,1.13,0l3.86,2.24c.31.18.3.47,0,.65l-5.18,3a1.25,1.25,0,0,1-1.13,0l-3.85-2.24a.35.35,0,0,1,0-.66"/><path class="cls-93" d="M138.16,234.37l5.18-3a1.25,1.25,0,0,1,1.13,0l.87.51a.34.34,0,0,1,0,.65l-5.19,3a1.23,1.23,0,0,1-1.12,0l-.87-.5a.35.35,0,0,1,0-.66"/><path class="cls-93" d="M141.15,236.11l5.19-3a1.23,1.23,0,0,1,1.12,0l.87.5c.31.18.3.47,0,.65l-5.18,3a1.25,1.25,0,0,1-1.13,0l-.86-.51a.34.34,0,0,1,0-.65"/><path class="cls-93" d="M130.38,238.86l5.19-3a1.25,1.25,0,0,1,1.13,0l3.85,2.24a.34.34,0,0,1,0,.65l-5.19,3a1.23,1.23,0,0,1-1.12,0l-3.86-2.24a.35.35,0,0,1,0-.66"/><path class="cls-93" d="M176.59,227.48l41-23.7a3.71,3.71,0,0,1,3.37,0l21.36,12.42a1,1,0,0,1,0,2l-41,23.7a3.73,3.73,0,0,1-3.38,0l-21.36-12.42a1,1,0,0,1,0-2"/></g></g><path class="cls-94" d="M201.61,65.43,91.92,128.76a6,6,0,0,0-2.74,4.73l.23,79.45c0,1.74,1.24,2.44,2.75,1.56l109.69-63.32a6,6,0,0,0,2.73-4.73L204.36,67c0-1.74-1.24-2.44-2.75-1.57"/><path class="cls-95" d="M92.16,214.09c-1.31.76-2.38.15-2.38-1.36l-.23-79.45a5.25,5.25,0,0,1,2.37-4.1L201.61,65.85c1.31-.76,2.39-.14,2.39,1.36l.23,79.45a5.25,5.25,0,0,1-2.38,4.1L92.16,214.09M201.61,65,91.92,128.34a6.82,6.82,0,0,0-3.09,5.36l.22,79.45c0,2,1.4,2.76,3.12,1.77L201.85,151.6a6.84,6.84,0,0,0,3.1-5.36l-.23-79.45c0-2-1.4-2.76-3.11-1.77"/><polyline class="cls-96" points="160.37 145.07 99.52 180.2 99.53 183.47 160.37 148.34 160.37 145.07"/><polyline class="cls-96" points="139.65 165.56 99.54 188.72 99.55 191.98 139.66 168.83 139.65 165.56"/><polyline class="cls-96" points="125.53 182.25 99.57 197.24 99.58 200.5 125.53 185.52 125.53 182.25"/><path class="cls-96" d="M125.51,144.89l0-11.59,8.75.75-8.72,10.84m34.72-45.84L99.39,134.17l.11,39.92L160.35,139l-.12-39.91"/><polyline class="cls-96" points="194.2 79.44 168.7 94.16 168.81 134.07 194.31 119.35 194.2 79.44"/><polyline class="cls-97" points="125.48 133.3 125.51 144.89 134.23 134.05 125.48 133.3"/><path class="cls-98" d="M319.88,138.07c-5.61-3.24-14.67-3.24-20.23,0s-5.55,8.49.07,11.73,14.65,3.23,20.23,0,5.53-8.48-.07-11.71"/><path class="cls-99" d="M318.23,139.24c-4.69-2.59-12.26-2.59-16.92,0s-4.63,6.79.06,9.39,12.25,2.59,16.91,0,4.63-6.78,0-9.37"/><path class="cls-100" d="M298.24,120.06a1.27,1.27,0,0,0-1.56-.85l-.11,0a1.25,1.25,0,0,0-.85,1.56l12.42,42.09a6,6,0,0,0,1.31-.23,6.19,6.19,0,0,0,1.21-.51Z"/><polygon class="cls-2" points="310.74 167.05 308.14 162.89 310.66 162.15 310.74 167.05"/><path class="cls-2" d="M296.93,120.26a1.3,1.3,0,0,0-.89,1.63l1.4,4.76a6,6,0,0,0,1.31-.23,6.22,6.22,0,0,0,1.21-.52l-1.4-4.76A1.31,1.31,0,0,0,296.93,120.26Z"/><path class="cls-101" d="M296.62,119.23a1.32,1.32,0,0,0-.89,1.63l1.41,4.76a5.92,5.92,0,0,0,1.3-.23,6.28,6.28,0,0,0,1.22-.51l-1.41-4.77A1.3,1.3,0,0,0,296.62,119.23Z"/><path class="cls-102" d="M310.74,167.05l0-1.36a1.13,1.13,0,0,0-.36.06,1.43,1.43,0,0,0-.34.14Z"/><path class="cls-103" d="M322.56,123.71a6.77,6.77,0,0,0-1.3-.25l-13.11,41.88a1.26,1.26,0,0,0,.83,1.57l.11,0a1.26,1.26,0,0,0,1.57-.83l13.1-41.87A5.93,5.93,0,0,0,322.56,123.71Z"/><polygon class="cls-2" points="323.92 119.34 323.76 124.25 321.26 123.46 323.92 119.34"/><path class="cls-2" d="M309.35,165.91a1.33,1.33,0,0,0,1.65-.86l1.48-4.74a6.28,6.28,0,0,0-1.21-.54,5.84,5.84,0,0,0-1.3-.24l-1.48,4.73A1.32,1.32,0,0,0,309.35,165.91Z"/><path class="cls-104" d="M309,166.93a1.32,1.32,0,0,0,1.65-.86l1.48-4.74a5.69,5.69,0,0,0-1.21-.53,5.34,5.34,0,0,0-1.3-.25l-1.48,4.74A1.32,1.32,0,0,0,309,166.93Z"/><path class="cls-105" d="M323.92,119.34l-.74,1.15a2.07,2.07,0,0,0,.34.15,1.13,1.13,0,0,0,.36.06Z"/><path class="cls-106" d="M307,116.3a6.47,6.47,0,0,0-1.32,0,5.51,5.51,0,0,0-1.29.3l.55,4.93h0l4.91,44.16a1.26,1.26,0,0,0,1.39,1.11h.11a1.26,1.26,0,0,0,1.11-1.39Z"/><polygon class="cls-2" points="305.15 111.75 306.98 116.31 304.37 116.59 305.15 111.75"/><path class="cls-2" d="M311.16,165.73a1.31,1.31,0,0,0,1.16-1.45l-.55-4.93a5.82,5.82,0,0,0-1.32,0,6.06,6.06,0,0,0-1.29.3l.55,4.93A1.31,1.31,0,0,0,311.16,165.73Z"/><path class="cls-104" d="M311.28,166.79a1.3,1.3,0,0,0,1.15-1.44l-.54-4.94a5.91,5.91,0,0,0-1.33,0,6.1,6.1,0,0,0-1.28.29l.55,4.94A1.3,1.3,0,0,0,311.28,166.79Z"/><path class="cls-107" d="M305.15,111.75l-.22,1.35a1.53,1.53,0,0,0,.37,0,1.45,1.45,0,0,0,.36-.08Z"/><path class="cls-108" d="M313.73,111.48h-.11a1.25,1.25,0,0,0-1.31,1.2l-1.91,44.4h0l-.22,5a6.28,6.28,0,0,0,1.31.2,5.66,5.66,0,0,0,1.31-.09l2.13-49.35A1.25,1.25,0,0,0,313.73,111.48Z"/><polygon class="cls-2" points="311.29 166.8 310.18 162.03 312.8 162.14 311.29 166.8"/><path class="cls-2" d="M313.63,112.55a1.3,1.3,0,0,0-1.37,1.25l-.22,5a6.28,6.28,0,0,0,1.31.21,5.79,5.79,0,0,0,1.32-.1l.21-5A1.31,1.31,0,0,0,313.63,112.55Z"/><path class="cls-109" d="M313.67,111.47a1.32,1.32,0,0,0-1.37,1.26l-.21,5a5.6,5.6,0,0,0,1.31.2,5.66,5.66,0,0,0,1.31-.09l.22-5A1.32,1.32,0,0,0,313.67,111.47Z"/><path class="cls-102" d="M311.29,166.8l.42-1.29a1.5,1.5,0,0,0-.73,0Z"/><polygon class="cls-110" points="297.83 143.54 297.83 143.54 297.83 143.54 297.83 143.54"/><path class="cls-98" d="M318.28,148.44c-4.66,2.7-12.23,2.7-16.91,0-2.35-1.35-3.53-3.13-3.54-4.9v27.39c0,1.77,1.19,3.54,3.54,4.9,4.68,2.7,12.25,2.7,16.91,0,2.33-1.35,3.49-3.12,3.48-4.89V143.54C321.77,145.31,320.61,147.08,318.28,148.44Z"/><polygon class="cls-111" points="295.49 143.93 295.49 143.93 295.49 143.93 295.49 143.93"/><path class="cls-112" d="M320,149.78c-5.58,3.24-14.63,3.24-20.23,0-2.81-1.62-4.22-3.74-4.23-5.86v32.75c0,2.12,1.42,4.24,4.23,5.86,5.6,3.24,14.65,3.24,20.23,0,2.78-1.62,4.16-3.74,4.15-5.86V143.93C324.11,146.05,322.73,148.17,320,149.78Z"/><path class="cls-113" d="M20.72,197.55l35.87,20.71,9.32-5.38L29.1,191.62a1,1,0,0,0-.94,0l-7.44,4.3A.94.94,0,0,0,20.72,197.55Z"/><path class="cls-114" d="M56.59,218.26l-.45-.26v-.7L20.26,196.59v64.57h0a.91.91,0,0,0,.45.95h0l35.87,20.71h0Z"/><polygon class="cls-115" points="63.71 212.88 63.71 212.87 56.59 216.98 56.59 281.56 65.92 276.18 65.91 212.88 63.71 212.88"/><polygon class="cls-116" points="56.59 218.26 57.69 217.62 57.7 282.2 56.59 282.83 56.59 218.26"/><polygon class="cls-117" points="64.81 213.51 65.91 212.88 65.92 277.45 64.81 278.09 64.81 213.51"/><polygon class="cls-118" points="64.81 213.51 63.71 212.88 63.7 277.45 64.81 278.09 64.81 213.51"/><path class="cls-119" d="M64.81,213.51l1.1-.63L29.81,192h0l-.71-.41a1,1,0,0,0-.94,0l-7.44,4.3a.81.81,0,0,0-.23.22h0l0,.05a.84.84,0,0,0-.11.21.52.52,0,0,0-.06.16,1.48,1.48,0,0,0,0,.21.58.58,0,0,0,0,.19.56.56,0,0,0,.07.18.72.72,0,0,0,.11.19l.05.07h0a1,1,0,0,0,.18.17l35.87,20.71,1.1-.64-36.1-20.84,7.12-4.11Z"/><path class="cls-120" d="M10.59,203.4l35.88,20.72,9.32-5.38L19,197.48a.93.93,0,0,0-.94,0l-7.45,4.3A.94.94,0,0,0,10.59,203.4Z"/><path class="cls-121" d="M46.47,224.12l-.46-.27v-.69L10.14,202.45V267h0a.93.93,0,0,0,.45.94h0l35.88,20.71h0Z"/><polygon class="cls-122" points="53.59 218.74 53.59 218.73 46.47 222.84 46.47 287.42 55.79 282.03 55.79 218.74 53.59 218.74"/><polygon class="cls-123" points="46.47 224.12 47.57 223.48 47.57 288.06 46.47 288.69 46.47 224.12"/><polygon class="cls-124" points="54.69 219.37 55.79 218.74 55.79 283.31 54.69 283.94 54.69 219.37"/><polygon class="cls-125" points="54.69 219.37 53.59 218.74 53.58 283.31 54.69 283.94 54.69 219.37"/><path class="cls-126" d="M54.69,219.37l1.1-.63L19.68,197.89h0l-.7-.41a.93.93,0,0,0-.94,0l-7.45,4.3a1,1,0,0,0-.23.22h0s0,0,0,0a.68.68,0,0,0-.12.22.88.88,0,0,0-.05.15.55.55,0,0,0,0,.22,1.21,1.21,0,0,0,0,.19,1.34,1.34,0,0,0,.07.18.76.76,0,0,0,.12.19l.05.07h0a.65.65,0,0,0,.17.16l35.88,20.72,1.1-.64L11.46,202.63l7.12-4.1Z"/><path class="cls-127" d="M.47,209.26,36.34,230l9.33-5.38L8.85,203.34a.93.93,0,0,0-.94,0l-7.44,4.3A.93.93,0,0,0,.47,209.26Z"/><path class="cls-128" d="M36.34,230l-.45-.26V229L0,208.3v64.58H0a.93.93,0,0,0,.45.95h0l35.87,20.72h0Z"/><polygon class="cls-129" points="43.46 224.59 43.46 224.59 36.34 228.69 36.34 293.27 45.67 287.89 45.66 224.59 43.46 224.59"/><polygon class="cls-130" points="36.34 229.97 37.45 229.34 37.45 293.91 36.34 294.55 36.34 229.97"/><polygon class="cls-131" points="44.56 225.23 45.66 224.59 45.67 289.17 44.56 289.8 44.56 225.23"/><polygon class="cls-132" points="44.56 225.23 43.46 224.59 43.46 289.17 44.56 289.8 44.56 225.23"/><path class="cls-133" d="M44.56,225.23l1.11-.64L9.56,203.75h0l-.71-.41a.93.93,0,0,0-.94,0l-7.44,4.3a.8.8,0,0,0-.23.22h0l0,0a.91.91,0,0,0-.11.22l-.06.15a1.55,1.55,0,0,0,0,.22,1.37,1.37,0,0,0,0,.19,1.22,1.22,0,0,0,.07.17.82.82,0,0,0,.12.2s0,.05,0,.07h0a.93.93,0,0,0,.18.16L36.34,230l1.11-.63L1.34,208.49l7.12-4.11Z"/><path class="cls-134" d="M91.49,273.92l4.8,4.5V249.87H94.07a6.56,6.56,0,0,0-6.55,6.56v8.33A12.54,12.54,0,0,0,91.49,273.92Z"/><path class="cls-96" d="M93.55,271.52l2.74,2.56V254.43H95a3.73,3.73,0,0,0-3.73,3.73v8.14A7.16,7.16,0,0,0,93.55,271.52Z"/><path class="cls-135" d="M122.17,278.18v-23.5H93.56v23.5c0,2.12,1.42,4.24,4.23,5.86,5.6,3.24,14.66,3.24,20.23,0C120.8,282.42,122.19,280.3,122.17,278.18Z"/><path class="cls-136" d="M118,248.82c-5.61-3.24-14.66-3.24-20.23,0s-5.54,8.48.07,11.72,14.66,3.24,20.23,0,5.54-8.48-.07-11.72"/><path class="cls-137" d="M116.3,250c-4.69-2.59-12.26-2.59-16.91,0s-4.64,6.79,0,9.38,12.26,2.59,16.92,0,4.62-6.79-.06-9.38"/><path class="cls-138" d="M116.36,259.37a8.87,8.87,0,0,0,1.85-1.36,9.24,9.24,0,0,0-1.91-1.39c-4.69-2.59-12.26-2.59-16.91,0A9,9,0,0,0,97.52,258a9.23,9.23,0,0,0,1.92,1.39C104.12,262,111.7,262,116.36,259.37Z"/><path class="cls-139" d="M104.93,257a3.94,3.94,0,0,0-3.45,0c-1,.53-.94,1.38,0,1.91a3.94,3.94,0,0,0,3.45,0c.94-.53.94-1.38,0-1.91"/><path class="cls-140" d="M109,258.71a1.08,1.08,0,0,0-1,0c-.26.14-.26.38,0,.53a1.13,1.13,0,0,0,1,0c.26-.15.26-.39,0-.53"/><path class="cls-141" d="M112.8,256.5a1.27,1.27,0,0,0-1.11,0c-.3.17-.3.45,0,.62a1.32,1.32,0,0,0,1.1,0c.31-.17.31-.45,0-.62"/><path class="cls-142" d="M106.62,256.19s-8.79-4.46-2.36-12.64c6.91-8.78,2.36-15.81,2.36-15.81s5.53,8.31,2.08,15.09A22.13,22.13,0,0,0,106.62,256.19Z"/><path class="cls-142" d="M108.38,239.88s3.43,5.69-1.11,13C107.27,252.91,115.22,246.72,108.38,239.88Z"/></g></g></g></svg>